<?xml version="1.0" standalone="yes"?>
<svg version="1.1" height="386" width="512" fill="none" stroke="none" stroke-linecap="square" stroke-miterlimit="10" clip-path="url(#p.0)" xmlns="http://www.w3.org/2000/svg" xmlns:xlink="http://www.w3.org/1999/xlink">
<g transform="scale(0.5, 0.5)">
<rect title="ex" fill="#ffffff" x="0" y="0" width="970" height="770" />
<text title="ex-text" font-size="20" x="230" y="78" fill="black">Extracellular</text>
<rect title="pm" fill="#cccccc" stroke="#000000" stroke-width="2" x="160" y="105" rx="50" ry="50" width="650" height="560" />
<text title="pm-text" x="574" y="97" fill="black">[8] Plasma membrane</text>
<rect title="cy" fill="#ffffff" stroke="#000000" stroke-width="2" x="170" y="115" rx="40" ry="40" width="630" height="540" />
<text title="cy-text" x="613" y="250" fill="black">[2] Cytosol</text>
<g title="cs" fill="#cccccc" stroke="#000000" stroke-width="2">
    <path d="M271.93445 479.4388L271.93445 479.4388C272.75967 478.49207 272.59967 477.13358 271.57703 476.4045L228.59535 445.7614C228.10428 445.4113 227.47588 445.25613 226.84842 445.33005C226.22096 445.40396 225.64581 445.7009 225.24953 446.15552L225.24953 446.15552L225.24953 446.15552C224.4243 447.10226 224.58434 448.46075 225.60695 449.18982L268.58862 479.83292C269.61127 480.56198 271.10922 480.38553 271.93445 479.4388Z" />
    <path d="M319.74887 468.62122L319.74887 468.62122C320.5741 467.67447 320.41406 466.31598 319.39145 465.5869L276.40976 434.9438C275.91867 434.5937 275.29028 434.43854 274.6628 434.51245C274.03537 434.58633 273.4602 434.88327 273.06393 435.33792L273.06393 435.33792L273.06393 435.33792C272.2387 436.28464 272.39874 437.64316 273.42136 438.37222L316.40305 469.01532C317.42566 469.7444 318.92365 469.56793 319.74887 468.62122Z" />
    <path d="M272.5113 519.3407L272.5113 519.3407C271.96115 519.3407 271.51514 518.8947 271.51514 518.34454L271.51514 401.34323C271.51514 401.07904 271.6201 400.82565 271.80692 400.63885C271.99374 400.45203 272.2471 400.34708 272.5113 400.34708L276.4958 400.34708C277.04596 400.34708 277.49194 400.7931 277.49194 401.34323L277.49194 518.34454L277.49194 518.34454C277.49194 518.8947 277.04596 519.3407 276.4958 519.3407Z" />
</g>
<text title="cs-text" x="208" y="394" fill="black">[3] Cytoskeleton</text>
<path title="pe" fill="#ffffff" stroke="#000000" stroke-width="2" d="M344.0 212.0L344.0 212.0C344.0 200.9543 352.9543 192.0 364.0 192.0L364.0 192.0C369.30432 192.0 374.39142 194.10713 378.14215 197.85786C381.89285 201.6086 384.0 206.69566 384.0 212.0L384.0 212.0C384.0 223.0457 375.0457 232.0 364.0 232.0L364.0 232.0C352.9543 232.0 344.0 223.0457 344.0 212.0Z" />
<text title="pe-text" x="303" y="185" fill="black">[4] Peroxisome</text>
<path title="ly" fill="#ffffff" stroke="#000000" stroke-width="2" d="M232.0 304.0L232.0 304.0C232.0 286.32687 246.32689 272.0 264.0 272.0L264.0 272.0C272.48694 272.0 280.62625 275.37143 286.6274 281.3726C292.62857 287.37375 296.0 295.51306 296.0 304.0L296.0 304.0C296.0 321.67313 281.67313 336.0 264.0 336.0L264.0 336.0C246.32689 336.0 232.0 321.67313 232.0 304.0Z" />
<text title="ly-text" x="205" y="260" fill="black">[5] Lysosome</text>
<path title="er" fill="#ffffff" stroke="#000000" stroke-width="2" transform="translate(375, 275)" d="M246.535,210.608c0.182-0.068,0.363-0.151,0.544-0.247c1.913-0.972,3.535-3.07,2.589-5.349c-8.172-20.121-20.484-39.057-39.577-50.725c-8.838-5.416-17.832-8.63-27.926-11.922c-7.943-2.402-15.831-0.376-23.33-3.854c-3.566-1.726-2.419-7.545,1.643-7.628c28.54-2.049,54.083,12.287,73.682,32.473c21.305,22.15,31.136,50.13,36.778,80.029c0.578,2.254,3.805,3.587,6.424,3.034c2.253-0.579,3.535-3.07,3.639-4.538c-2.303-45.889-30.313-88.056-70.829-109.713c-1.049-0.812-2.073-1.99-2.362-3.117c-0.212-2.227,2.092-3.541,3.901-3.044c11.955,3.054,20.323,9.912,30.106,17.606c3.489,2.827,6.218,5.969,9.681,9.163c4.146,3.979,6.327,9.664,11.257,12.961c1.417,0.838,3.329-0.134,4.848-0.765c1.179-1.023,2.384-2.413,1.385-3.958c-14.467-24.988-36.501-42.027-63.113-51.643c-2.517-0.915-5.349-2.589-6.27-5.235c-0.264-1.494-0.135-3.328,1.411-4.327c1.519-0.63,3.406-1.234,5.214-0.739c9.045,2.481,16.86,6.719,25.016,11.348c12.378,7.509,22.793,16.724,32.371,27.354c13.646,15.711,24.278,32.316,32.528,51.335c8.538,20.145,13.331,41.134,14.744,62.99c0.91,18.503-0.722,36.458-7.832,53.659c-0.838,1.416-2.042,2.806-3.51,2.703c-4.062,0.083-5.116-5.891-3.783-9.116c6.583-20.188,8.344-39.978,6.146-61.152c-2.648-25.263-12.186-46.954-26.203-67.854c-1.312-2.305-4.692-1.437-5.975,1.055c-1.333,3.225-0.438,6.239,1.19,9.303c14.55,29.051,20.429,60.81,17.841,92.341c-1.658,18.322-6.277,36.805-15.905,53.091c-5.049,8.864-9.808,18.854-19.684,22.954c-1.913,0.972-3.438-3.561-2.208-5.318c7.901-12.719,17.876-23.45,23.338-38.185c4.154-11.877,6.475-23.883,6.985-36.386c0.283-4.036,1.694-8.362,0.144-12.527c-0.63-1.52-1.287-2.672-2.702-3.509c-2.518-0.916-5.95,0.688-6.131,3.255c-2.525,14.943-1.042,30.535-7.553,44.458c-0.812,1.05-2.015,2.44-3.142,2.729c-5.241,1.106-4.383-5.839-3.784-9.116c6.707-27.186,6.834-55.203-5.039-80.378c-0.972-1.912-4.011-0.651-5.608,1.081" />
<text title="er-text" x="620" y="470" fill="black">[6] ER</text>
<g title="go" fill="#ffffff" stroke="#000000" stroke-width="2" transform="translate(375, 275)">
    <path d="M310.372,159.867c-8.646-20.1-20.22-37.562-34.915-54.083c-9.577-10.631-19.967-20.212-32.815-26.279c-3.907-2.118-3.494-7.99-0.377-10.352c7.995,1.669,14.188,8.005,20.824,13.266c27.414,24.423,46.395,53.416,59.9,86.818c13.192,32.642,19.991,67.048,18.64,101.986c-0.273,14.363-0.18,28.751-5.224,42.779c-0.837,1.416-2.066,3.173-4.242,2.651c-2.518-0.914-3.463-3.193-3.309-5.395c-0.481-8.885,1.947-17.196,2.935-25.977c1.239-17.614,0.933-34.23-1.472-52.469C326.986,206.764,320.513,183.444,310.372,159.867z" />
    <path d="M325.127,159.799c5.505,11.428,9.434,23.159,13.011,35.211c5.553,20.673,9.688,40.509,12.201,62.443c0.61,7.05,1.272,13.366,1.542,20.022c0.113,8.859-0.847,17.273,0.735,26.234c0.554,2.621,1.474,5.267,4.357,6.207c0.733,0.052,1.178-1.023,1.204-1.39c2.133-14.601,2.065-29.357,1.63-44.138c-0.228-17.717-3.443-34.907-8.153-51.833c-10.05-35.371-23.293-67.279-43.116-100.02c-7.612-12.336-13.836-23.468-23.858-33.023c-2.781-2.409-5.38-7.385-8.864-5.05c-3.457,1.969-0.439,6.238,1.976,8.621c9.707,8.795,15.222,19.51,22.179,30.694C309.553,129.571,317.406,143.767,325.127,159.799z" />
    <path d="M335.815,154.65c-5.359-12.915-10.771-25.096-16.893-37.696c-7.722-16.032-16.308-30.28-22.929-46.234c-1.287-2.672,0.728-5.112,3.4-6.399c2.646-0.92,5.111,0.729,6.424,3.034c23.947,42.25,37.987,83.802,54.467,127.37c9.672,25.019,12.294,50.649,20.104,75.906c1.235,3.406,2.496,6.445,4.099,9.876c2.678,3.876,6.192,6.336,8.478,10.553c0.604,1.887,1.969,3.458,1.447,5.634c-1.334,3.225-5.686,2.182-7.783,0.559c-5.562-4.816-9.996-9.922-12.835-16.761c-9.382-23.892-10.536-49.419-18.398-73.941C350.004,188.838,343.068,172.125,335.815,154.65z" />
    <path d="M351.75,153.559c7.393,18.66,14.742,36.808,21.157,55.698c5.997,19.598,7.171,39.594,15.421,58.613c2.863,6.47,6.487,12.625,13.697,14.977c1.809,0.496,3.694-0.109,4.19-1.917c0.548-2.543,0.703-4.745-0.61-7.05c-2.362-3.117-6.347-4.134-8.683-7.617c-3.334-5.029-5.2-9.954-7.015-15.614c-3.789-14.28-6.084-28.824-10.976-43.181c-7.649-22.295-17.264-42.886-26.408-64.918c-11.011-26.958-20.63-52.71-24.803-82.505c-0.502-3.355-2.316-9.014-5.722-7.778c-6.078,2.522-3.736,11.169-2.289,16.802C328.365,98.074,340.475,125.108,351.75,153.559z" />
</g>
<text title="go-text" x="680" y="415" fill="black">[7] Golgi</text>
<path title="en" fill="#cccccc" stroke="#000000" stroke-width="2" d="M240.0 188.0L240.0 188.0C240.0 176.9543 248.9543 168.0 260.0 168.0L260.0 168.0C265.30432 168.0 270.39142 170.10713 274.14215 173.85786C277.89285 177.6086 280.0 182.69566 280.0 188.0L280.0 188.0C280.0 199.0457 271.0457 208.0 260.0 208.0L260.0 208.0C248.9543 208.0 240.0 199.0457 240.0 188.0Z" />
<text title="en-text" x="203" y="160" fill="black">[9] Endosome</text>
<g transform="translate(375, 275)">
    <ellipse title="nu" fill="#ffffff" transform="matrix(0.9975 0.0702 -0.0702 0.9975 17.9059 -9.9135)" cx="150.026" cy="249.852" rx="97.667" ry="95.333"/>
    <path title="nuclear-envelope" fill="#cccccc" stroke="#000000" stroke-width="2" d="M90.213,180.885c-25.533,22.177-34.614,56.937-26.534,88.851c6.105,23.293,20.542,43.484,40.973,57.091c2.099,1.623,1.132,4.874,0.61,7.05c-0.889,2.15-3.193,3.463-5.002,2.967c-10.435-3.684-17.573-12.299-24.737-20.548c-5.433-6.651-10.105-13.618-13.992-21.267c-7.144-13.777-10.566-28.032-10.975-43.18c-0.513-13.68,1.151-26.839,6.117-39.766c4.077-10.776,9.204-20.741,17.555-29.373c5.576-5.877,10.992-14.715,20.14-13.702c2.202,0.155,3.122,2.801,2.233,4.951C94.926,176.792,92.569,178.838,90.213,180.885z"/>
    <path title="nuclear-envelope" fill="#cccccc" stroke="#000000" stroke-width="2" d="M247.477,215.183c-1.23,1.757-2.144,4.274-1.198,6.553c16.48,43.568,1.412,95.242-41.231,119.531c-10.372,5.908-20.197,9.273-31.412,11.434c-21.645,3.64-42.825,0.675-61.679-9.134c-3.199-1.7-1.344-7.101,2.01-7.603c2.62-0.554,4.821-0.399,7.339,0.517c21.894,8.547,45.823,9.125,67.829,0.347c26.198-10.695,45.542-34.042,51.566-62.013c7.224-34.524-5.079-69.317-31.837-92.589c-24.344-20.888-56.951-27.857-87.506-19.432c-6.394,1.763-12.864,4.626-19.443,3.794c-0.734-0.051-1.391-1.204-0.946-2.279c0.889-2.15,2.827-3.489,4.739-4.46c9.143-4.151,18.182-6.834,28.219-7.971c16.771-2.508,32.473-0.297,47.942,5.216c24.803,9.121,43.901,25.953,57.345,49.762c1.556,2.539,4.436,4.843,7.323,3.751"/>
</g>
<text title="nu-text" font-size="20" x="500" y="530" fill="black">Nucleus</text>
<path title="va" fill="#ffffff" stroke="#000000" stroke-width="2" d="M432.0 244.0L432.0 244.0C432.0 232.9543 440.9543 224.0 452.0 224.0L452.0 224.0C457.30432 224.0 462.39142 226.10713 466.14215 229.85786C469.89285 233.6086 472.0 238.69566 472.0 244.0L472.0 244.0C472.0 255.0457 463.0457 264.0 452.0 264.0L452.0 264.0C440.9543 264.0 432.0 255.0457 432.0 244.0Z" />
<text title="va-text" x="412" y="216" fill="black">Vacuole</text>
<g transform="translate(175, 500)">
    <path title="mi" fill="#cccccc" stroke="#000000" stroke-width="2" d="M115.488,56.871c17.226-7.471,33.236-11.984,51.633-11.98c8.657-0.108,16.447,0.357,23.861,4.5c5.325,3.34,9.486,8.696,8.956,14.97c-0.98,10.312-7.793,17.931-15.179,24.683c-17.091,15.657-37.255,24.303-58.705,30.059c-12.638,3.05-24.981,4.659-37.816,3.163c-9.879-1.267-21.691-5.933-22.079-16.9c-0.888-12.196,8.022-20.889,16.351-28.574C92.573,67.959,103.13,62.23,115.488,56.871z" />
    <path title="mi" fill="#ffffff" stroke="#000000" stroke-width="2" d="M120.266,60.886c-2.764,1.076-4.914,1.999-7.158,3.793c3.794,7.158,9.397,12.808,13.552,20.04c1.001,2.458,3.804,5.282,2.133,7.945c-1.016,1.294-2.745,0.565-3.752-0.016c-8.414-6.6-13.281-15.854-19.885-23.961c-11.777,4.352-21.12,13.332-28.09,23.547c-2.177,3.31-3.708,7.127-3.076,11.386c1.271,6.643,7.391,9.771,13.444,11.382c4.686,0.957,9.444,1.555,14.063,0.996c-0.115-6.782-2.829-13.719-1.43-20.566c0.147-0.722,0.081-2.236,1.235-2.376c2.671-0.205,3.958,2.685,4.671,4.709c1.778,5.995,2.402,12.129,4.614,17.838c16.317-2.674,32.566-6.864,46.456-16.042c-4.007-7.952-10.185-14.471-12.89-23.283c-0.214-0.794,0.154-2.597,1.235-2.376c10.092,2.062,13.649,14.052,21.416,20.145c11.646-7.383,27.411-16.552,26.179-32.573c-4.001-9.829-16.763-11.685-26.361-10.642c1.124,7.363,3.837,14.3,3.085,21.656c-0.073,0.36-0.581,1.007-1.375,1.22c-1.516,0.066-1.942-1.523-2.516-2.39c-3.508-6.724-3.911-13.94-7.131-20.23C145.197,50.96,132.912,55.959,120.266,60.886z" />
</g>
<text title="mi-text" x="246" y="602" fill="black">Mitochondrion</text>
</g>
</svg>