<?xml version="1.0" encoding="UTF-8" standalone="no"?>
<svg xmlns:dc="http://purl.org/dc/elements/1.1/" xmlns:cc="http://creativecommons.org/ns#" xmlns:rdf="http://www.w3.org/1999/02/22-rdf-syntax-ns#" xmlns:svg="http://www.w3.org/2000/svg" xmlns="http://www.w3.org/2000/svg" xmlns:sodipodi="http://sodipodi.sourceforge.net/DTD/sodipodi-0.dtd" xmlns:inkscape="http://www.inkscape.org/namespaces/inkscape" version="1.1" height="384" width="512" clip-path="url(#p.0)" id="svg2" inkscape:version="0.48.2 r9819" sodipodi:docname="subcell-inkscape.svg" stroke-linecap="square" stroke="none" fill="none">
  <metadata id="metadata173">
    <rdf:RDF>
      <cc:Work rdf:about="">
        <dc:format>image/svg+xml</dc:format>
        <dc:type rdf:resource="http://purl.org/dc/dcmitype/StillImage" />
        <dc:title></dc:title>
      </cc:Work>
    </rdf:RDF>
  </metadata>
  <sodipodi:namedview pagecolor="#ffffff" bordercolor="#666666" borderopacity="1" objecttolerance="10" gridtolerance="10" guidetolerance="10" inkscape:pageopacity="0" inkscape:pageshadow="2" inkscape:window-width="1556" inkscape:window-height="970" id="namedview171" showgrid="false" inkscape:zoom="0.61458333" inkscape:cx="513" inkscape:cy="385" inkscape:window-x="2070" inkscape:window-y="94" inkscape:window-maximized="0" inkscape:current-layer="svg2" showborder="false" inkscape:showpageshadow="false"></sodipodi:namedview>
  <defs id="defs4">
    <radialGradient id="grad1" cx="50%" cy="50%" r="50%">
      <!--radialGradient id="grad1" cx="50%" cy="50%" r="50%" fx="100%" fy="100%"-->
      <stop offset="75%" style="stop-color:#ffffff; stop-opacity:0" id="stop55" />
      <!--stop offset="0%" style="stop-color:#ffffff; stop-opacity:0" /-->
      <stop offset="100%" style="stop-color:#ffffff; stop-opacity:1" id="stop57" />
    </radialGradient>
  </defs>
  <g transform="scale(0.5,0.5)">
  <rect title="ex" x="0" y="0" width="1024" height="768" id="rect61" fill="#ffffff" />
  <rect title="ex-gradient-filter" x="0" y="0" width="1024" height="768" id="rect63" fill="url(#grad1)" />
  <g id="g3150" transform="translate(87.864407,4.7796567)">
    <text id="text65" y="90" x="530" font-size="20" title="ex-text" style="font-size:20px;fill:#000000">Extracellular</text>
    <path transform="matrix(1.5,0,0,1.34,60,108)" id="path67" d="m 443.034,362.769 c -12.557,7.975 -25.572,11.425 -39.621,14.578 c -19.811,3.938 -38.538,5.122 -57.989,5.91 c -60.87,1.575 -121.742,4.728 -182.974,1.575 C 117.908,382.618 41.048,382.047 20.492,330.757 C 12.261,310.222 11.946,286.569 10.39,264.641 C 8.578,239.089 7.383,213.475 7.285,187.85 C 7.111,142.754 4.548,84.794 39.268,51.132 C 55.115,35.768 74.565,29.464 95.096,23.948 c 14.407,-3.546 28.455,-5.909 42.861,-7.88 C 179.019,10.947 219.359,6.219 260.059,5.825 c 23.051,0 45.745,0.789 68.795,3.545 c 38.901,4.729 76.359,10.638 114.179,23.245 c 6.123,1.97 11.886,4.728 17.288,9.062 c 23.052,19.305 22.332,52.005 23.052,79.583 c 1.44,52.005 1.082,104.01 -1.079,156.016 c -1.08,19.304 -4.324,38.609 -12.967,56.338 c -6.484,12.214 -15.128,22.064 -26.293,29.155 z" title="cw" inkscape:connector-curvature="0" style="fill:#cccccc;fill-rule:nonzero;stroke:#000000;stroke-width:2;stroke-linecap:butt;stroke-linejoin:round" />
    <text id="text69" y="120" x="200" font-size="20" title="cw-text" style="font-size:20px;fill:#000000">Cell Wall</text>
    <path transform="matrix(1.5,0,0,1.32,60,111)" id="path71" d="m 435.295,356.229 c -12.064,7.662 -24.569,10.977 -38.067,14.006 c -19.033,3.784 -37.027,4.921 -55.715,5.678 c -58.483,1.514 -116.967,4.542 -175.799,1.514 C 122.919,375.299 49.074,374.751 29.323,325.472 c -7.908,-19.729 -8.211,-42.455 -9.706,-63.523 c -1.741,-24.55 -2.889,-49.159 -2.984,-73.78 C 16.467,144.843 14.004,89.155 47.363,56.814 C 62.589,42.052 81.277,35.996 101.002,30.696 c 13.843,-3.407 27.339,-5.678 41.181,-7.571 c 39.451,-4.92 78.21,-9.462 117.314,-9.842 c 22.147,0 43.95,0.758 66.098,3.407 c 37.375,4.543 73.363,10.221 109.7,22.333 c 5.883,1.893 11.419,4.542 16.61,8.707 c 22.147,18.548 21.457,49.965 22.147,76.462 c 1.384,49.966 1.039,99.931 -1.036,149.897 c -1.039,18.547 -4.154,37.095 -12.459,54.128 c -6.229,11.735 -14.534,21.199 -25.262,28.012 z" title="pm" inkscape:connector-curvature="0" style="fill:#cccccc;fill-rule:nonzero;stroke:#000000;stroke-width:2;stroke-linecap:butt;stroke-linejoin:round" />
    <path transform="matrix(1.5,0,0,1.3,60,115)" id="path73" d="m 429.953,351.713 c -11.725,7.446 -23.878,10.668 -36.995,13.611 c -18.497,3.678 -35.983,4.782 -54.145,5.518 c -56.835,1.472 -113.671,4.414 -170.844,1.472 C 126.379,370.246 54.615,369.713 35.421,321.823 C 27.736,302.649 27.442,280.565 25.989,260.09 C 24.297,236.232 23.181,212.316 23.09,188.39 C 22.929,146.285 20.535,92.167 52.954,60.736 C 67.75,46.39 85.912,40.504 105.081,35.354 c 13.453,-3.311 26.568,-5.518 40.021,-7.357 c 38.339,-4.782 76.005,-9.196 114.007,-9.564 c 21.523,0 42.711,0.736 64.235,3.311 c 36.321,4.415 71.297,9.933 106.609,21.704 c 5.717,1.839 11.098,4.414 16.143,8.461 c 21.522,18.025 20.851,48.558 21.522,74.308 c 1.345,48.558 1.011,97.115 -1.008,145.673 c -1.008,18.024 -4.037,36.05 -12.107,52.604 c -6.054,11.401 -14.125,20.598 -24.55,27.219 z" title="cy" inkscape:connector-curvature="0" style="fill:#ffffff;fill-rule:nonzero;stroke:#000000;stroke-width:2;stroke-linecap:butt;stroke-linejoin:round" />
    <text id="text75" y="210" x="430" font-size="20" title="cy-text" style="font-size:20px;fill:#000000">Cytosol</text>
    <g id="g77" title="cs" style="fill:#cccccc;stroke:#000000;stroke-width:2">
      <path id="path79" d="m 0,0.6456822 l 0,0 C 0,0.28908178 0.28908178,0 0.6456822,0 L 94.40944,0 c 0.17124,0 0.33547,0.06802703 0.456565,0.18911594 c 0.121085,0.12108889 0.18911,0.2853207 0.18911,0.45656626 l 0,2.5826513 c 0,0.3566005 -0.289075,0.6456823 -0.645675,0.6456823 l -93.7637578,0 C 0.28908178,3.8740158 0,3.584934 0,3.2283335 z" transform="matrix(1.3856406,-0.8,0.5,0.8660254,630,450)" inkscape:connector-curvature="0" style="fill-rule:nonzero;stroke-linecap:butt;stroke-linejoin:round" />
      <path id="path81" d="m 0,0.6456822 l 0,0 C 0,0.28908178 0.28908178,0 0.6456822,0 L 94.40944,0 c 0.17124,0 0.33547,0.06802703 0.456565,0.18911594 c 0.121085,0.12108889 0.18911,0.2853207 0.18911,0.45656626 l 0,2.5826513 c 0,0.3566005 -0.289075,0.6456823 -0.645675,0.6456823 l -93.7637578,0 C 0.28908178,3.8740158 0,3.584934 0,3.2283335 z" transform="matrix(1.3249666,-0.4822484,0.34202014,0.93969262,635,460)" inkscape:connector-curvature="0" style="fill-rule:nonzero;stroke-linecap:butt;stroke-linejoin:round" />
      <path id="path83" d="m 0,0.6456822 l 0,0 C 0,0.28908178 0.28908178,0 0.6456822,0 L 94.40944,0 c 0.17124,0 0.33547,0.06802703 0.456565,0.18911594 c 0.121085,0.12108889 0.18911,0.2853207 0.18911,0.45656626 l 0,2.5826513 c 0,0.3566005 -0.289075,0.6456823 -0.645675,0.6456823 l -93.7637578,0 C 0.28908178,3.8740158 0,3.584934 0,3.2283335 z" transform="matrix(1.2605539,-0.22226967,0.17364818,0.98480775,640,470)" inkscape:connector-curvature="0" style="fill-rule:nonzero;stroke-linecap:butt;stroke-linejoin:round" />
      <path id="path85" d="m 0,0.6456822 l 0,0 C 0,0.28908178 0.28908178,0 0.6456822,0 L 94.40944,0 c 0.17124,0 0.33547,0.06802703 0.456565,0.18911594 c 0.121085,0.12108889 0.18911,0.2853207 0.18911,0.45656626 l 0,2.5826513 c 0,0.3566005 -0.289075,0.6456823 -0.645675,0.6456823 l -93.7637578,0 C 0.28908178,3.8740158 0,3.584934 0,3.2283335 z" transform="matrix(1.2,0,0,1,645,480)" inkscape:connector-curvature="0" style="fill-rule:nonzero;stroke-linecap:butt;stroke-linejoin:round" />
    </g>
    <text id="text87" y="505" x="643" font-size="20" title="cs-text" style="font-size:20px;fill:#000000">Cytoskeleton</text>
    <circle id="circle89" r="30" cy="330" cx="160" title="ly" d="m 190,330 c 0,16.56854 -13.43146,30 -30,30 c -16.56854,0 -30,-13.43146 -30,-30 c 0,-16.56854 13.43146,-30 30,-30 c 16.56854,0 30,13.43146 30,30 z" sodipodi:cx="160" sodipodi:cy="330" sodipodi:rx="30" sodipodi:ry="30" style="fill:#ffffff;stroke:#000000;stroke-width:2" />
    <text id="text91" y="290" x="120" font-size="20" title="ly-text" style="font-size:20px;fill:#000000">Lysosome</text>
    <circle id="circle93" r="30" cy="230" cx="215" title="en" d="m 245,230 c 0,16.56854 -13.43146,30 -30,30 c -16.56854,0 -30,-13.43146 -30,-30 c 0,-16.56854 13.43146,-30 30,-30 c 16.56854,0 30,13.43146 30,30 z" sodipodi:cx="215" sodipodi:cy="230" sodipodi:rx="30" sodipodi:ry="30" style="fill:#ffffff;stroke:#000000;stroke-width:2" />
    <text id="text95" y="190" x="195" font-size="20" title="pe-text" style="font-size:20px;fill:#000000">Endosome</text>
    <circle id="circle97" r="30" cy="330" cx="270" title="va" d="m 300,330 c 0,16.56854 -13.43146,30 -30,30 c -16.56854,0 -30,-13.43146 -30,-30 c 0,-16.56854 13.43146,-30 30,-30 c 16.56854,0 30,13.43146 30,30 z" sodipodi:cx="270" sodipodi:cy="330" sodipodi:rx="30" sodipodi:ry="30" style="fill:#ffffff;stroke:#000000;stroke-width:2" />
    <text id="text99" y="290" x="240" font-size="20" title="pe-text" style="font-size:20px;fill:#000000">Peroxisome</text>
    <path transform="translate(95,148)" id="path101" d="m 527.66425,267.8621 c 23.16101,-0.50352 100.36529,-27.18986 118.82675,-46.32284 c 18.4615,-19.13298 -8.3932,-43.46806 -8.0577,-68.47506 c 0.3355,-25.00701 11.58135,-64.112425 10.07085,-81.56693 C 646.99365,54.04276 641.95776,54.882656 629.3703,48.337162 C 616.78284,41.791668 591.77625,34.90978 572.97925,32.2243 c -18.79705,-2.685476 -37.09055,-0.671478 -56.39112,0 c -19.3005,0.67148 -46.48903,0.336396 -59.41203,4.02887 c -12.92305,3.69248 -16.95103,10.237972 -18.12602,18.125984 c -1.17496,7.888016 5.7056,21.314091 11.07612,29.202096 c 5.3705,7.88802 13.93,10.40552 21.147,18.12599 c 7.21694,7.72047 19.97286,18.79834 22.15484,28.19684 c 2.18198,9.39852 -9.73404,21.31322 -9.06299,28.19423 c 0.67105,6.88101 9.56519,7.55338 13.08923,13.09188 c 3.52405,5.53848 6.37665,11.24409 8.05512,20.13909 c 1.6785,8.89502 -1.67673,20.47552 2.01575,33.23098 c 3.69247,12.75546 -3.02185,43.80534 20.1391,43.30184 z" title="va" inkscape:connector-curvature="0" style="fill:#ffffff;stroke:#000000;stroke-width:2" />
    <text id="text103" y="300" x="630" font-size="20" title="va-text" style="font-size:20px;fill:#000000">Vacuole</text>
    <path transform="translate(225,200)" id="path105" d="m 246.535,210.608 c 0.182,-0.068 0.363,-0.151 0.544,-0.247 c 1.913,-0.972 3.535,-3.07 2.589,-5.349 c -8.172,-20.121 -20.484,-39.057 -39.577,-50.725 c -8.838,-5.416 -17.832,-8.63 -27.926,-11.922 c -7.943,-2.402 -15.831,-0.376 -23.33,-3.854 c -3.566,-1.726 -2.419,-7.545 1.643,-7.628 c 28.54,-2.049 54.083,12.287 73.682,32.473 c 21.305,22.15 31.136,50.13 36.778,80.029 c 0.578,2.254 3.805,3.587 6.424,3.034 c 2.253,-0.579 3.535,-3.07 3.639,-4.538 c -2.303,-45.889 -30.313,-88.056 -70.829,-109.713 c -1.049,-0.812 -2.073,-1.99 -2.362,-3.117 c -0.212,-2.227 2.092,-3.541 3.901,-3.044 c 11.955,3.054 20.323,9.912 30.106,17.606 c 3.489,2.827 6.218,5.969 9.681,9.163 c 4.146,3.979 6.327,9.664 11.257,12.961 c 1.417,0.838 3.329,-0.134 4.848,-0.765 c 1.179,-1.023 2.384,-2.413 1.385,-3.958 c -14.467,-24.988 -36.501,-42.027 -63.113,-51.643 c -2.517,-0.915 -5.349,-2.589 -6.27,-5.235 c -0.264,-1.494 -0.135,-3.328 1.411,-4.327 c 1.519,-0.63 3.406,-1.234 5.214,-0.739 c 9.045,2.481 16.86,6.719 25.016,11.348 c 12.378,7.509 22.793,16.724 32.371,27.354 c 13.646,15.711 24.278,32.316 32.528,51.335 c 8.538,20.145 13.331,41.134 14.744,62.99 c 0.91,18.503 -0.722,36.458 -7.832,53.659 c -0.838,1.416 -2.042,2.806 -3.51,2.703 c -4.062,0.083 -5.116,-5.891 -3.783,-9.116 c 6.583,-20.188 8.344,-39.978 6.146,-61.152 c -2.648,-25.263 -12.186,-46.954 -26.203,-67.854 c -1.312,-2.305 -4.692,-1.437 -5.975,1.055 c -1.333,3.225 -0.438,6.239 1.19,9.303 c 14.55,29.051 20.429,60.81 17.841,92.341 c -1.658,18.322 -6.277,36.805 -15.905,53.091 c -5.049,8.864 -9.808,18.854 -19.684,22.954 c -1.913,0.972 -3.438,-3.561 -2.208,-5.318 c 7.901,-12.719 17.876,-23.45 23.338,-38.185 c 4.154,-11.877 6.475,-23.883 6.985,-36.386 c 0.283,-4.036 1.694,-8.362 0.144,-12.527 c -0.63,-1.52 -1.287,-2.672 -2.702,-3.509 c -2.518,-0.916 -5.95,0.688 -6.131,3.255 c -2.525,14.943 -1.042,30.535 -7.553,44.458 c -0.812,1.05 -2.015,2.44 -3.142,2.729 c -5.241,1.106 -4.383,-5.839 -3.784,-9.116 c 6.707,-27.186 6.834,-55.203 -5.039,-80.378 c -0.972,-1.912 -4.011,-0.651 -5.608,1.081" title="er" inkscape:connector-curvature="0" style="fill:#ffffff;stroke:#000000;stroke-width:2" />
    <text id="text107" y="530" x="510" font-size="20" title="er-text" style="font-size:20px;fill:#000000">ER</text>
    <g id="g109" transform="translate(220,205)" title="go" style="fill:#ffffff;stroke:#000000;stroke-width:2">
      <path id="path111" d="m 310.372,159.867 c -8.646,-20.1 -20.22,-37.562 -34.915,-54.083 C 265.88,95.153 255.49,85.572 242.642,79.505 c -3.907,-2.118 -3.494,-7.99 -0.377,-10.352 c 7.995,1.669 14.188,8.005 20.824,13.266 c 27.414,24.423 46.395,53.416 59.9,86.818 c 13.192,32.642 19.991,67.048 18.64,101.986 c -0.273,14.363 -0.18,28.751 -5.224,42.779 c -0.837,1.416 -2.066,3.173 -4.242,2.651 c -2.518,-0.914 -3.463,-3.193 -3.309,-5.395 c -0.481,-8.885 1.947,-17.196 2.935,-25.977 c 1.239,-17.614 0.933,-34.23 -1.472,-52.469 c -3.331,-26.048 -9.804,-49.368 -19.945,-72.945 z" inkscape:connector-curvature="0" />
      <path id="path113" d="m 325.127,159.799 c 5.505,11.428 9.434,23.159 13.011,35.211 c 5.553,20.673 9.688,40.509 12.201,62.443 c 0.61,7.05 1.272,13.366 1.542,20.022 c 0.113,8.859 -0.847,17.273 0.735,26.234 c 0.554,2.621 1.474,5.267 4.357,6.207 c 0.733,0.052 1.178,-1.023 1.204,-1.39 c 2.133,-14.601 2.065,-29.357 1.63,-44.138 c -0.228,-17.717 -3.443,-34.907 -8.153,-51.833 c -10.05,-35.371 -23.293,-67.279 -43.116,-100.02 C 300.926,100.199 294.702,89.067 284.68,79.512 c -2.781,-2.409 -5.38,-7.385 -8.864,-5.05 c -3.457,1.969 -0.439,6.238 1.976,8.621 c 9.707,8.795 15.222,19.51 22.179,30.694 c 9.582,15.794 17.435,29.99 25.156,46.022 z" inkscape:connector-curvature="0" />
      <path id="path115" d="m 335.815,154.65 c -5.359,-12.915 -10.771,-25.096 -16.893,-37.696 C 311.2,100.922 302.614,86.674 295.993,70.72 c -1.287,-2.672 0.728,-5.112 3.4,-6.399 c 2.646,-0.92 5.111,0.729 6.424,3.034 c 23.947,42.25 37.987,83.802 54.467,127.37 c 9.672,25.019 12.294,50.649 20.104,75.906 c 1.235,3.406 2.496,6.445 4.099,9.876 c 2.678,3.876 6.192,6.336 8.478,10.553 c 0.604,1.887 1.969,3.458 1.447,5.634 c -1.334,3.225 -5.686,2.182 -7.783,0.559 c -5.562,-4.816 -9.996,-9.922 -12.835,-16.761 C 364.412,256.6 363.258,231.073 355.396,206.551 c -5.392,-17.713 -12.328,-34.426 -19.581,-51.901 z" inkscape:connector-curvature="0" />
      <path id="path117" d="m 351.75,153.559 c 7.393,18.66 14.742,36.808 21.157,55.698 c 5.997,19.598 7.171,39.594 15.421,58.613 c 2.863,6.47 6.487,12.625 13.697,14.977 c 1.809,0.496 3.694,-0.109 4.19,-1.917 c 0.548,-2.543 0.703,-4.745 -0.61,-7.05 c -2.362,-3.117 -6.347,-4.134 -8.683,-7.617 c -3.334,-5.029 -5.2,-9.954 -7.015,-15.614 c -3.789,-14.28 -6.084,-28.824 -10.976,-43.181 C 371.282,185.173 361.667,164.582 352.523,142.55 C 341.512,115.592 331.893,89.84 327.72,60.045 c -0.502,-3.355 -2.316,-9.014 -5.722,-7.778 c -6.078,2.522 -3.736,11.169 -2.289,16.802 c 8.656,29.005 20.766,56.039 32.041,84.49 z" inkscape:connector-curvature="0" />
    </g>
    <text id="text119" y="530" x="580" font-size="20" title="go-text" style="font-size:20px;fill:#000000">Golgi</text>
    <g id="g121" transform="translate(225,200)">
      <ellipse d="m 247.693,249.85201 c 0,52.65096 -43.727,95.333 -97.667,95.333 c -53.939994,0 -97.666999,-42.68204 -97.666999,-95.333 c 0,-52.65097 43.727005,-95.33301 97.666999,-95.33301 c 53.94,0 97.667,42.68204 97.667,95.33301 z" id="ellipse123" ry="95.333" rx="97.667" cy="249.85201" cx="150.026" transform="matrix(0.9975,0.0702,-0.0702,0.9975,17.9059,-9.9135)" title="nu" sodipodi:cx="150.026" sodipodi:cy="249.85201" sodipodi:rx="97.667" sodipodi:ry="95.333" style="fill:#ffffff" />
      <path id="path125" d="M 90.213,180.885 C 64.68,203.062 55.599,237.822 63.679,269.736 c 6.105,23.293 20.542,43.484 40.973,57.091 c 2.099,1.623 1.132,4.874 0.61,7.05 c -0.889,2.15 -3.193,3.463 -5.002,2.967 C 89.825,333.16 82.687,324.545 75.523,316.296 C 70.09,309.645 65.418,302.678 61.531,295.029 C 54.387,281.252 50.965,266.997 50.556,251.849 c -0.513,-13.68 1.151,-26.839 6.117,-39.766 c 4.077,-10.776 9.204,-20.741 17.555,-29.373 c 5.576,-5.877 10.992,-14.715 20.14,-13.702 c 2.202,0.155 3.122,2.801 2.233,4.951 c -1.675,2.833 -4.032,4.879 -6.388,6.926 z" title="nuclear-envelope" inkscape:connector-curvature="0" style="fill:#cccccc;stroke:#000000;stroke-width:2" />
      <path id="path127" d="m 247.477,215.183 c -1.23,1.757 -2.144,4.274 -1.198,6.553 c 16.48,43.568 1.412,95.242 -41.231,119.531 c -10.372,5.908 -20.197,9.273 -31.412,11.434 c -21.645,3.64 -42.825,0.675 -61.679,-9.134 c -3.199,-1.7 -1.344,-7.101 2.01,-7.603 c 2.62,-0.554 4.821,-0.399 7.339,0.517 c 21.894,8.547 45.823,9.125 67.829,0.347 c 26.198,-10.695 45.542,-34.042 51.566,-62.013 c 7.224,-34.524 -5.079,-69.317 -31.837,-92.589 C 184.52,161.338 151.913,154.369 121.358,162.794 c -6.394,1.763 -12.864,4.626 -19.443,3.794 c -0.734,-0.051 -1.391,-1.204 -0.946,-2.279 c 0.889,-2.15 2.827,-3.489 4.739,-4.46 c 9.143,-4.151 18.182,-6.834 28.219,-7.971 c 16.771,-2.508 32.473,-0.297 47.942,5.216 c 24.803,9.121 43.901,25.953 57.345,49.762 c 1.556,2.539 4.436,4.843 7.323,3.751" title="nuclear-envelope" inkscape:connector-curvature="0" style="fill:#cccccc;stroke:#000000;stroke-width:2" />
    </g>
    <text id="text129" y="450" x="350" font-size="20" title="nu-text" style="font-size:20px;fill:#000000">Nucleus</text>
    <g id="g131" transform="matrix(0,1,-1,0,275,325)">
      <path id="path133" d="m 115.488,56.871 c 17.226,-7.471 33.236,-11.984 51.633,-11.98 c 8.657,-0.108 16.447,0.357 23.861,4.5 c 5.325,3.34 9.486,8.696 8.956,14.97 c -0.98,10.312 -7.793,17.931 -15.179,24.683 c -17.091,15.657 -37.255,24.303 -58.705,30.059 c -12.638,3.05 -24.981,4.659 -37.816,3.163 c -9.879,-1.267 -21.691,-5.933 -22.079,-16.9 C 65.271,93.17 74.181,84.477 82.51,76.792 C 92.573,67.959 103.13,62.23 115.488,56.871 z" title="mi" inkscape:connector-curvature="0" style="fill:#cccccc;stroke:#000000;stroke-width:2" />
      <path id="path135" d="m 120.266,60.886 c -2.764,1.076 -4.914,1.999 -7.158,3.793 c 3.794,7.158 9.397,12.808 13.552,20.04 c 1.001,2.458 3.804,5.282 2.133,7.945 c -1.016,1.294 -2.745,0.565 -3.752,-0.016 c -8.414,-6.6 -13.281,-15.854 -19.885,-23.961 c -11.777,4.352 -21.12,13.332 -28.09,23.547 c -2.177,3.31 -3.708,7.127 -3.076,11.386 c 1.271,6.643 7.391,9.771 13.444,11.382 c 4.686,0.957 9.444,1.555 14.063,0.996 c -0.115,-6.782 -2.829,-13.719 -1.43,-20.566 c 0.147,-0.722 0.081,-2.236 1.235,-2.376 c 2.671,-0.205 3.958,2.685 4.671,4.709 c 1.778,5.995 2.402,12.129 4.614,17.838 c 16.317,-2.674 32.566,-6.864 46.456,-16.042 C 153.036,91.609 146.858,85.09 144.153,76.278 c -0.214,-0.794 0.154,-2.597 1.235,-2.376 c 10.092,2.062 13.649,14.052 21.416,20.145 C 178.45,86.664 194.215,77.495 192.983,61.474 C 188.982,51.645 176.22,49.789 166.622,50.832 c 1.124,7.363 3.837,14.3 3.085,21.656 c -0.073,0.36 -0.581,1.007 -1.375,1.22 c -1.516,0.066 -1.942,-1.523 -2.516,-2.39 c -3.508,-6.724 -3.911,-13.94 -7.131,-20.23 c -13.488,-0.128 -25.773,4.871 -38.419,9.798 z" title="mi" inkscape:connector-curvature="0" style="fill:#ffffff;stroke:#000000;stroke-width:2" />
    </g>
    <text id="text137" y="550" x="180" font-size="20" title="mi-text" style="font-size:20px;fill:#000000">Mitochondrion</text>
    <g id="g139" transform="translate(-50,130)">
      <path id="path141" d="m 373.717,114.335 c 3.894,16.223 11.404,30.532 23.911,41.568 c 9.196,7.725 21.704,12.875 33.107,7.356 c 12.14,-6.253 17.289,-20.231 18.393,-33.106 C 450.6,110.288 445.449,91.527 434.046,74.606 C 426.689,63.57 417.492,55.477 404.617,52.534 c -8.828,-1.839 -17.657,1.472 -23.176,8.093 c -12.506,15.083 -12.138,35.315 -7.724,53.708 z" stroke-miterlimit="2" title="ch" inkscape:connector-curvature="0" style="fill:#cccccc;stroke:#000000;stroke-miterlimit:2" />
      <line id="line143" y2="75.532997" x2="412.617" y1="75.532997" x1="387.95099" stroke-miterlimit="2" style="fill:none;stroke:#000000;stroke-miterlimit:2" />
      <line id="line145" y2="80.532997" x2="418.117" y1="80.532997" x1="384.70099" stroke-miterlimit="2" style="fill:none;stroke:#000000;stroke-miterlimit:2" />
      <line id="line147" y2="85.532997" x2="423.117" y1="85.532997" x1="389.70099" stroke-miterlimit="2" style="fill:none;stroke:#000000;stroke-miterlimit:2" />
      <line id="line149" y2="90.532997" x2="417.867" y1="90.532997" x1="393.20099" stroke-miterlimit="2" style="fill:none;stroke:#000000;stroke-miterlimit:2" />
      <line id="line151" y2="106.033" x2="408.617" y1="106.033" x1="383.95099" stroke-miterlimit="2" style="fill:none;stroke:#000000;stroke-miterlimit:2" />
      <line id="line153" y2="111.033" x2="414.117" y1="111.033" x1="380.70099" stroke-miterlimit="2" style="fill:none;stroke:#000000;stroke-miterlimit:2" />
      <line id="line155" y2="116.033" x2="419.117" y1="116.033" x1="385.70099" stroke-miterlimit="2" style="fill:none;stroke:#000000;stroke-miterlimit:2" />
      <line id="line157" y2="121.033" x2="413.867" y1="121.033" x1="389.20099" stroke-miterlimit="2" style="fill:none;stroke:#000000;stroke-miterlimit:2" />
      <line id="line159" y2="131.783" x2="426.617" y1="131.783" x1="401.95099" stroke-miterlimit="2" style="fill:none;stroke:#000000;stroke-miterlimit:2" />
      <line id="line161" y2="136.783" x2="432.117" y1="136.783" x1="398.70099" stroke-miterlimit="2" style="fill:none;stroke:#000000;stroke-miterlimit:2" />
      <line id="line163" y2="141.783" x2="437.117" y1="141.783" x1="403.70099" stroke-miterlimit="2" style="fill:none;stroke:#000000;stroke-miterlimit:2" />
      <line id="line165" y2="146.783" x2="431.867" y1="146.783" x1="407.20099" stroke-miterlimit="2" style="fill:none;stroke:#000000;stroke-miterlimit:2" />
    </g>
    <text id="text167" y="170" x="300" font-size="20" title="ch-text" style="font-size:20px;fill:#000000">Chloroplast</text>
    <text id="text169" y="594" x="300" font-size="20" title="pm-text" style="font-size:20px;fill:#000000">Plasma membrane</text>
  </g>
  </g>
</svg>
