<?xml version="1.0" standalone="yes"?>
<svg version="1.1" height="768" width="1024" fill="none" stroke="none" stroke-linecap="square" stroke-miterlimit="10" clip-path="url(#p.0)" xmlns="http://www.w3.org/2000/svg" xmlns:xlink="http://www.w3.org/1999/xlink">
<!-- Make it like a potato, do not have so much place for cytoplasm, make cytoskeleton nicer -->
<g transform="scale(0.5, 0.5)">
<rect title="ex" fill="#ffffff" x="0" y="0" width="970" height="770" />
<text title="ex-text" font-size="20" x="530" y="90" fill="black">Extracellular</text>
<path transform="translate(60,108) scale(1.5,1.34)" title="cw" fill="#cccccc" stroke="#000000" stroke-width="2.0" stroke-linejoin="round" stroke-linecap="butt" fill-rule="nonzero" d="M443.034,362.769c-12.557,7.975-25.572,11.425-39.621,14.578c-19.811,3.938-38.538,5.122-57.989,5.91c-60.87,1.575-121.742,4.728-182.974,1.575c-44.542-2.214-121.402-2.785-141.958-54.075c-8.231-20.535-8.546-44.188-10.102-66.116c-1.812-25.552-3.007-51.166-3.105-76.791C7.111,142.754,4.548,84.794,39.268,51.132c15.847-15.364,35.297-21.668,55.828-27.184c14.407-3.546,28.455-5.909,42.861-7.88c41.062-5.121,81.402-9.849,122.102-10.243c23.051,0,45.745,0.789,68.795,3.545c38.901,4.729,76.359,10.638,114.179,23.245c6.123,1.97,11.886,4.728,17.288,9.062c23.052,19.305,22.332,52.005,23.052,79.583c1.44,52.005,1.082,104.01-1.079,156.016c-1.08,19.304-4.324,38.609-12.967,56.338C462.843,345.828,454.199,355.678,443.034,362.769z" />
<text title="cw-text" font-size="20" x="200" y="120" fill="black">Cell Wall</text>
<path transform="translate(60,111) scale(1.5,1.32)" title="pm" fill="#cccccc" stroke="#000000" stroke-width="2.0" stroke-linejoin="round" stroke-linecap="butt" fill-rule="nonzero" d="M435.295,356.229c-12.064,7.662-24.569,10.977-38.067,14.006c-19.033,3.784-37.027,4.921-55.715,5.678c-58.483,1.514-116.967,4.542-175.799,1.514c-42.795-2.128-116.64-2.676-136.391-51.955c-7.908-19.729-8.211-42.455-9.706-63.523c-1.741-24.55-2.889-49.159-2.984-73.78c-0.166-43.326-2.629-99.014,30.73-131.355c15.226-14.762,33.914-20.818,53.639-26.118c13.843-3.407,27.339-5.678,41.181-7.571c39.451-4.92,78.21-9.462,117.314-9.842c22.147,0,43.95,0.758,66.098,3.407c37.375,4.543,73.363,10.221,109.7,22.333c5.883,1.893,11.419,4.542,16.61,8.707c22.147,18.548,21.457,49.965,22.147,76.462c1.384,49.966,1.039,99.931-1.036,149.897c-1.039,18.547-4.154,37.095-12.459,54.128C454.328,339.952,446.023,349.416,435.295,356.229z" />
<path transform="translate(60,115) scale(1.5,1.3)" title="cy" fill="#ffffff" stroke="#000000" stroke-width="2.0" stroke-linejoin="round" stroke-linecap="butt" fill-rule="nonzero" d="M429.953,351.713c-11.725,7.446-23.878,10.668-36.995,13.611c-18.497,3.678-35.983,4.782-54.145,5.518c-56.835,1.472-113.671,4.414-170.844,1.472c-41.59-2.068-113.354-2.601-132.548-50.491c-7.685-19.174-7.979-41.258-9.432-61.733c-1.692-23.858-2.808-47.774-2.899-71.7c-0.161-42.105-2.555-96.223,29.864-127.654C67.75,46.39,85.912,40.504,105.081,35.354c13.453-3.311,26.568-5.518,40.021-7.357c38.339-4.782,76.005-9.196,114.007-9.564c21.523,0,42.711,0.736,64.235,3.311c36.321,4.415,71.297,9.933,106.609,21.704c5.717,1.839,11.098,4.414,16.143,8.461c21.522,18.025,20.851,48.558,21.522,74.308c1.345,48.558,1.011,97.115-1.008,145.673c-1.008,18.024-4.037,36.05-12.107,52.604C448.449,335.895,440.378,345.092,429.953,351.713z" />
<text title="cy-text" font-size="20" x="430" y="210" fill="black">Cytosol</text>
<g title="cs" fill="#cccccc" stroke="#000000" stroke-width="2">
<path transform="translate(630 450) rotate(-30) scale(1.60,1.0)" stroke-linejoin="round" stroke-linecap="butt" fill-rule="nonzero" d="M0 0.6456822L0 0.6456822C0 0.28908178 0.28908178 9.00543E-17 0.6456822 0L94.40944 0C94.58068 0 94.74491 0.068027034 94.866005 0.18911594C94.98709 0.31020483 95.055115 0.47443664 95.055115 0.6456822L95.055115 3.2283335C95.055115 3.584934 94.76604 3.8740158 94.40944 3.8740158L0.6456822 3.8740158C0.28908178 3.8740158 9.00543E-17 3.584934 0 3.2283335Z" />
<path transform="translate(635 460) rotate(-20) scale(1.41,1.0)" stroke-linejoin="round" stroke-linecap="butt" fill-rule="nonzero" d="M0 0.6456822L0 0.6456822C0 0.28908178 0.28908178 9.00543E-17 0.6456822 0L94.40944 0C94.58068 0 94.74491 0.068027034 94.866005 0.18911594C94.98709 0.31020483 95.055115 0.47443664 95.055115 0.6456822L95.055115 3.2283335C95.055115 3.584934 94.76604 3.8740158 94.40944 3.8740158L0.6456822 3.8740158C0.28908178 3.8740158 9.00543E-17 3.584934 0 3.2283335Z" />
<path transform="translate(640 470) rotate(-10) scale(1.28,1.0)" stroke-linejoin="round" stroke-linecap="butt" fill-rule="nonzero" d="M0 0.6456822L0 0.6456822C0 0.28908178 0.28908178 9.00543E-17 0.6456822 0L94.40944 0C94.58068 0 94.74491 0.068027034 94.866005 0.18911594C94.98709 0.31020483 95.055115 0.47443664 95.055115 0.6456822L95.055115 3.2283335C95.055115 3.584934 94.76604 3.8740158 94.40944 3.8740158L0.6456822 3.8740158C0.28908178 3.8740158 9.00543E-17 3.584934 0 3.2283335Z" />
<path transform="translate(645 480) rotate(0) scale(1.2,1.0)" stroke-linejoin="round" stroke-linecap="butt" fill-rule="nonzero" d="M0 0.6456822L0 0.6456822C0 0.28908178 0.28908178 9.00543E-17 0.6456822 0L94.40944 0C94.58068 0 94.74491 0.068027034 94.866005 0.18911594C94.98709 0.31020483 95.055115 0.47443664 95.055115 0.6456822L95.055115 3.2283335C95.055115 3.584934 94.76604 3.8740158 94.40944 3.8740158L0.6456822 3.8740158C0.28908178 3.8740158 9.00543E-17 3.584934 0 3.2283335Z" />
</g>
<text title="cs-text" font-size="20" x="643" y="505" fill="black">Cytoskeleton</text>
<circle title="ly" fill="#ffffff" stroke="#000000" stroke-width="2" cx="160" cy="330" r="30" />
<text title="ly-text" font-size="20" x="120" y="290" fill="black">Lysosome</text>
<circle title="en" fill="#ffffff" stroke="#000000" stroke-width="2" cx="215" cy="230" r="30" />
<text title="pe-text" font-size="20" x="195" y="190" fill="black">Endosome</text>
<circle title="va" fill="#ffffff" stroke="#000000" stroke-width="2" cx="270" cy="330" r="30" />
<text title="pe-text" font-size="20" x="240" y="290" fill="black">Peroxisome</text>
<path title="va" transform="translate(95,148)" fill="#ffffff" stroke="#000000" stroke-width="2" d="M527.66425 267.8621C550.82526 267.35858 628.02954 240.67224 646.491 221.53926C664.9525 202.40628 638.0978 178.0712 638.4333 153.0642C638.7688 128.05719 650.01465 88.951775 648.50415 71.49727C646.99365 54.04276 641.95776 54.882656 629.3703 48.337162C616.78284 41.791668 591.77625 34.90978 572.97925 32.2243C554.1822 29.538824 535.8887 31.552822 516.58813 32.2243C497.28763 32.89578 470.0991 32.560696 457.1761 36.25317C444.25305 39.94565 440.22507 46.491142 439.05008 54.379154C437.87512 62.26717 444.75568 75.693245 450.1262 83.58125C455.4967 91.46927 464.0562 93.98677 471.2732 101.70724C478.49014 109.42771 491.24606 120.50558 493.42804 129.90408C495.61002 139.3026 483.694 151.2173 484.36505 158.09831C485.0361 164.97932 493.93024 165.65169 497.45428 171.19019C500.97833 176.72867 503.83093 182.43428 505.5094 191.32928C507.1879 200.2243 503.83267 211.8048 507.52515 224.56026C511.21762 237.31572 504.5033 268.3656 527.66425 267.8621Z" />
<text title="va-text" font-size="20" x="630" y="300" fill="black">Vacuole</text>
<path title="er" fill="#ffffff" stroke="#000000" stroke-width="2" transform="translate(225, 200)" d="M246.535,210.608c0.182-0.068,0.363-0.151,0.544-0.247c1.913-0.972,3.535-3.07,2.589-5.349c-8.172-20.121-20.484-39.057-39.577-50.725c-8.838-5.416-17.832-8.63-27.926-11.922c-7.943-2.402-15.831-0.376-23.33-3.854c-3.566-1.726-2.419-7.545,1.643-7.628c28.54-2.049,54.083,12.287,73.682,32.473c21.305,22.15,31.136,50.13,36.778,80.029c0.578,2.254,3.805,3.587,6.424,3.034c2.253-0.579,3.535-3.07,3.639-4.538c-2.303-45.889-30.313-88.056-70.829-109.713c-1.049-0.812-2.073-1.99-2.362-3.117c-0.212-2.227,2.092-3.541,3.901-3.044c11.955,3.054,20.323,9.912,30.106,17.606c3.489,2.827,6.218,5.969,9.681,9.163c4.146,3.979,6.327,9.664,11.257,12.961c1.417,0.838,3.329-0.134,4.848-0.765c1.179-1.023,2.384-2.413,1.385-3.958c-14.467-24.988-36.501-42.027-63.113-51.643c-2.517-0.915-5.349-2.589-6.27-5.235c-0.264-1.494-0.135-3.328,1.411-4.327c1.519-0.63,3.406-1.234,5.214-0.739c9.045,2.481,16.86,6.719,25.016,11.348c12.378,7.509,22.793,16.724,32.371,27.354c13.646,15.711,24.278,32.316,32.528,51.335c8.538,20.145,13.331,41.134,14.744,62.99c0.91,18.503-0.722,36.458-7.832,53.659c-0.838,1.416-2.042,2.806-3.51,2.703c-4.062,0.083-5.116-5.891-3.783-9.116c6.583-20.188,8.344-39.978,6.146-61.152c-2.648-25.263-12.186-46.954-26.203-67.854c-1.312-2.305-4.692-1.437-5.975,1.055c-1.333,3.225-0.438,6.239,1.19,9.303c14.55,29.051,20.429,60.81,17.841,92.341c-1.658,18.322-6.277,36.805-15.905,53.091c-5.049,8.864-9.808,18.854-19.684,22.954c-1.913,0.972-3.438-3.561-2.208-5.318c7.901-12.719,17.876-23.45,23.338-38.185c4.154-11.877,6.475-23.883,6.985-36.386c0.283-4.036,1.694-8.362,0.144-12.527c-0.63-1.52-1.287-2.672-2.702-3.509c-2.518-0.916-5.95,0.688-6.131,3.255c-2.525,14.943-1.042,30.535-7.553,44.458c-0.812,1.05-2.015,2.44-3.142,2.729c-5.241,1.106-4.383-5.839-3.784-9.116c6.707-27.186,6.834-55.203-5.039-80.378c-0.972-1.912-4.011-0.651-5.608,1.081" />
<text title="er-text" font-size="20" x="510" y="530" fill="black">ER</text>
<g title="go" fill="#ffffff" stroke="#000000" stroke-width="2" transform="translate(220, 205)">
    <path d="M310.372,159.867c-8.646-20.1-20.22-37.562-34.915-54.083c-9.577-10.631-19.967-20.212-32.815-26.279c-3.907-2.118-3.494-7.99-0.377-10.352c7.995,1.669,14.188,8.005,20.824,13.266c27.414,24.423,46.395,53.416,59.9,86.818c13.192,32.642,19.991,67.048,18.64,101.986c-0.273,14.363-0.18,28.751-5.224,42.779c-0.837,1.416-2.066,3.173-4.242,2.651c-2.518-0.914-3.463-3.193-3.309-5.395c-0.481-8.885,1.947-17.196,2.935-25.977c1.239-17.614,0.933-34.23-1.472-52.469C326.986,206.764,320.513,183.444,310.372,159.867z" />
    <path d="M325.127,159.799c5.505,11.428,9.434,23.159,13.011,35.211c5.553,20.673,9.688,40.509,12.201,62.443c0.61,7.05,1.272,13.366,1.542,20.022c0.113,8.859-0.847,17.273,0.735,26.234c0.554,2.621,1.474,5.267,4.357,6.207c0.733,0.052,1.178-1.023,1.204-1.39c2.133-14.601,2.065-29.357,1.63-44.138c-0.228-17.717-3.443-34.907-8.153-51.833c-10.05-35.371-23.293-67.279-43.116-100.02c-7.612-12.336-13.836-23.468-23.858-33.023c-2.781-2.409-5.38-7.385-8.864-5.05c-3.457,1.969-0.439,6.238,1.976,8.621c9.707,8.795,15.222,19.51,22.179,30.694C309.553,129.571,317.406,143.767,325.127,159.799z" />
    <path d="M335.815,154.65c-5.359-12.915-10.771-25.096-16.893-37.696c-7.722-16.032-16.308-30.28-22.929-46.234c-1.287-2.672,0.728-5.112,3.4-6.399c2.646-0.92,5.111,0.729,6.424,3.034c23.947,42.25,37.987,83.802,54.467,127.37c9.672,25.019,12.294,50.649,20.104,75.906c1.235,3.406,2.496,6.445,4.099,9.876c2.678,3.876,6.192,6.336,8.478,10.553c0.604,1.887,1.969,3.458,1.447,5.634c-1.334,3.225-5.686,2.182-7.783,0.559c-5.562-4.816-9.996-9.922-12.835-16.761c-9.382-23.892-10.536-49.419-18.398-73.941C350.004,188.838,343.068,172.125,335.815,154.65z" />
    <path d="M351.75,153.559c7.393,18.66,14.742,36.808,21.157,55.698c5.997,19.598,7.171,39.594,15.421,58.613c2.863,6.47,6.487,12.625,13.697,14.977c1.809,0.496,3.694-0.109,4.19-1.917c0.548-2.543,0.703-4.745-0.61-7.05c-2.362-3.117-6.347-4.134-8.683-7.617c-3.334-5.029-5.2-9.954-7.015-15.614c-3.789-14.28-6.084-28.824-10.976-43.181c-7.649-22.295-17.264-42.886-26.408-64.918c-11.011-26.958-20.63-52.71-24.803-82.505c-0.502-3.355-2.316-9.014-5.722-7.778c-6.078,2.522-3.736,11.169-2.289,16.802C328.365,98.074,340.475,125.108,351.75,153.559z" />
</g>
<text title="go-text" font-size="20" x="580" y="530" fill="black">Golgi</text>
<g transform="translate(225, 200)">
    <ellipse title="nu" fill="#ffffff" transform="matrix(0.9975 0.0702 -0.0702 0.9975 17.9059 -9.9135)" cx="150.026" cy="249.852" rx="97.667" ry="95.333"/>
    <path title="nuclear-envelope" fill="#cccccc" stroke="#000000" stroke-width="2" d="M90.213,180.885c-25.533,22.177-34.614,56.937-26.534,88.851c6.105,23.293,20.542,43.484,40.973,57.091c2.099,1.623,1.132,4.874,0.61,7.05c-0.889,2.15-3.193,3.463-5.002,2.967c-10.435-3.684-17.573-12.299-24.737-20.548c-5.433-6.651-10.105-13.618-13.992-21.267c-7.144-13.777-10.566-28.032-10.975-43.18c-0.513-13.68,1.151-26.839,6.117-39.766c4.077-10.776,9.204-20.741,17.555-29.373c5.576-5.877,10.992-14.715,20.14-13.702c2.202,0.155,3.122,2.801,2.233,4.951C94.926,176.792,92.569,178.838,90.213,180.885z"/>
    <path title="nuclear-envelope" fill="#cccccc" stroke="#000000" stroke-width="2" d="M247.477,215.183c-1.23,1.757-2.144,4.274-1.198,6.553c16.48,43.568,1.412,95.242-41.231,119.531c-10.372,5.908-20.197,9.273-31.412,11.434c-21.645,3.64-42.825,0.675-61.679-9.134c-3.199-1.7-1.344-7.101,2.01-7.603c2.62-0.554,4.821-0.399,7.339,0.517c21.894,8.547,45.823,9.125,67.829,0.347c26.198-10.695,45.542-34.042,51.566-62.013c7.224-34.524-5.079-69.317-31.837-92.589c-24.344-20.888-56.951-27.857-87.506-19.432c-6.394,1.763-12.864,4.626-19.443,3.794c-0.734-0.051-1.391-1.204-0.946-2.279c0.889-2.15,2.827-3.489,4.739-4.46c9.143-4.151,18.182-6.834,28.219-7.971c16.771-2.508,32.473-0.297,47.942,5.216c24.803,9.121,43.901,25.953,57.345,49.762c1.556,2.539,4.436,4.843,7.323,3.751"/>
</g>
<text title="nu-text" font-size="20" x="350" y="450" fill="black">Nucleus</text>
<g transform="translate(275, 325) rotate(90)">
    <path title="mi" fill="#cccccc" stroke="#000000" stroke-width="2" d="M115.488,56.871c17.226-7.471,33.236-11.984,51.633-11.98c8.657-0.108,16.447,0.357,23.861,4.5c5.325,3.34,9.486,8.696,8.956,14.97c-0.98,10.312-7.793,17.931-15.179,24.683c-17.091,15.657-37.255,24.303-58.705,30.059c-12.638,3.05-24.981,4.659-37.816,3.163c-9.879-1.267-21.691-5.933-22.079-16.9c-0.888-12.196,8.022-20.889,16.351-28.574C92.573,67.959,103.13,62.23,115.488,56.871z" />
    <path title="mi" fill="#ffffff" stroke="#000000" stroke-width="2" d="M120.266,60.886c-2.764,1.076-4.914,1.999-7.158,3.793c3.794,7.158,9.397,12.808,13.552,20.04c1.001,2.458,3.804,5.282,2.133,7.945c-1.016,1.294-2.745,0.565-3.752-0.016c-8.414-6.6-13.281-15.854-19.885-23.961c-11.777,4.352-21.12,13.332-28.09,23.547c-2.177,3.31-3.708,7.127-3.076,11.386c1.271,6.643,7.391,9.771,13.444,11.382c4.686,0.957,9.444,1.555,14.063,0.996c-0.115-6.782-2.829-13.719-1.43-20.566c0.147-0.722,0.081-2.236,1.235-2.376c2.671-0.205,3.958,2.685,4.671,4.709c1.778,5.995,2.402,12.129,4.614,17.838c16.317-2.674,32.566-6.864,46.456-16.042c-4.007-7.952-10.185-14.471-12.89-23.283c-0.214-0.794,0.154-2.597,1.235-2.376c10.092,2.062,13.649,14.052,21.416,20.145c11.646-7.383,27.411-16.552,26.179-32.573c-4.001-9.829-16.763-11.685-26.361-10.642c1.124,7.363,3.837,14.3,3.085,21.656c-0.073,0.36-0.581,1.007-1.375,1.22c-1.516,0.066-1.942-1.523-2.516-2.39c-3.508-6.724-3.911-13.94-7.131-20.23C145.197,50.96,132.912,55.959,120.266,60.886z" />
</g>
<text title="mi-text" font-size="20" x="180" y="550" fill="black">Mitochondrion</text>
</g>
<g transform="translate(-50,130)">
<path title="ch" fill="#cccccc" stroke="#000000" stroke-miterlimit="2" d="M373.717,114.335c3.894,16.223,11.404,30.532,23.911,41.568c9.196,7.725,21.704,12.875,33.107,7.356c12.14-6.253,17.289-20.231,18.393-33.106c1.472-19.865-3.679-38.626-15.082-55.547c-7.357-11.036-16.554-19.129-29.429-22.072c-8.828-1.839-17.657,1.472-23.176,8.093C368.935,75.71,369.303,95.942,373.717,114.335z" />
<line fill="none" stroke="#000000" stroke-miterlimit="2" x1="387.951" y1="75.533" x2="412.617" y2="75.533" />
<line fill="none" stroke="#000000" stroke-miterlimit="2" x1="384.701" y1="80.533" x2="418.117" y2="80.533" />
<line fill="none" stroke="#000000" stroke-miterlimit="2" x1="389.701" y1="85.533" x2="423.117" y2="85.533" />
<line fill="none" stroke="#000000" stroke-miterlimit="2" x1="393.201" y1="90.533" x2="417.867" y2="90.533" />
<line fill="none" stroke="#000000" stroke-miterlimit="2" x1="383.951" y1="106.033" x2="408.617" y2="106.033" />
<line fill="none" stroke="#000000" stroke-miterlimit="2" x1="380.701" y1="111.033" x2="414.117" y2="111.033" />
<line fill="none" stroke="#000000" stroke-miterlimit="2" x1="385.701" y1="116.033" x2="419.117" y2="116.033" />
<line fill="none" stroke="#000000" stroke-miterlimit="2" x1="389.201" y1="121.033" x2="413.867" y2="121.033" />
<line fill="none" stroke="#000000" stroke-miterlimit="2" x1="401.951" y1="131.783" x2="426.617" y2="131.783" />
<line fill="none" stroke="#000000" stroke-miterlimit="2" x1="398.701" y1="136.783" x2="432.117" y2="136.783" />
<line fill="none" stroke="#000000" stroke-miterlimit="2" x1="403.701" y1="141.783" x2="437.117" y2="141.783" />
<line fill="none" stroke="#000000" stroke-miterlimit="2" x1="407.201" y1="146.783" x2="431.867" y2="146.783" />    
</g>
<text title="ch-text" font-size="20" x="300" y="170" fill="black">Chloroplast</text>
<text title="pm-text" font-size="20" x="300" y="594" fill="black">Plasma membrane</text>
</svg>