<?xml version="1.0" encoding="UTF-8" standalone="no"?>
<svg xmlns:dc="http://purl.org/dc/elements/1.1/" xmlns:cc="http://creativecommons.org/ns#" xmlns:rdf="http://www.w3.org/1999/02/22-rdf-syntax-ns#" xmlns:svg="http://www.w3.org/2000/svg" xmlns="http://www.w3.org/2000/svg" xmlns:sodipodi="http://sodipodi.sourceforge.net/DTD/sodipodi-0.dtd" xmlns:inkscape="http://www.inkscape.org/namespaces/inkscape" version="1.1" width="525" height="225" id="svg2" inkscape:version="0.48.2 r9819" sodipodi:docname="subcell_overview_plants.svg">
    <metadata id="metadata168">
        <rdf:RDF>
            <cc:Work rdf:about="">
                <dc:format>image/svg+xml</dc:format>
                <dc:type rdf:resource="http://purl.org/dc/dcmitype/StillImage" />
            </cc:Work>
        </rdf:RDF>
    </metadata>
    <defs id="defs166" />
    <sodipodi:namedview pagecolor="#ffffff" bordercolor="#666666" borderopacity="1" objecttolerance="10" gridtolerance="10" guidetolerance="10" inkscape:pageopacity="0" inkscape:pageshadow="2" inkscape:window-width="1349" inkscape:window-height="891" id="namedview164" showgrid="false" inkscape:zoom="2" inkscape:cx="312.28079" inkscape:cy="112.5" inkscape:window-x="2054" inkscape:window-y="68" inkscape:window-maximized="0" inkscape:current-layer="svg2"></sodipodi:namedview>
    <text x="19.385271" y="156.32751" id="text4" transform="matrix(0.70710678,-0.70710678,0.70710678,0.70710678,0,0)" style="font-size:12px;fill:#000000">Nucleus</text>
    <text x="37.073986" y="173.34239" id="text6" transform="matrix(0.70710678,-0.70710678,0.70710678,0.70710678,0,0)" style="font-size:12px;fill:#000000">Cytosol</text>
    <text x="57.020126" y="193.28853" id="text8" transform="matrix(0.70710678,-0.70710678,0.70710678,0.70710678,0,0)" style="font-size:12px;fill:#000000">Citoskeleton</text>
    <text x="72.837265" y="209.7795" id="text10" style="font-size:12px;fill:#000000" transform="matrix(0.70710678,-0.70710678,0.70710678,0.70710678,0,0)">Peroxisome</text>
    <text x="90.572533" y="227.51477" id="text12" style="font-size:12px;fill:#000000" transform="matrix(0.70710678,-0.70710678,0.70710678,0.70710678,0,0)">Lysosome</text>
    <text x="108.33944" y="245.28168" id="text14" style="font-size:12px;fill:#000000" transform="matrix(0.70710678,-0.70710678,0.70710678,0.70710678,0,0)">Endoplasmic Reticulum</text>
    <text x="125.47372" y="261.74213" id="text16" style="font-size:12px;fill:#000000" transform="matrix(0.70710678,-0.70710678,0.70710678,0.70710678,0,0)">Golgi apparatus</text>
    <text x="143.13432" y="280.07657" id="text18" transform="matrix(0.70710678,-0.70710678,0.70710678,0.70710678,0,0)" style="font-size:12px;fill:#000000">Plasma membrane</text>
    <text x="161.6528" y="298.59506" id="text20" transform="matrix(0.70710678,-0.70710678,0.70710678,0.70710678,0,0)" style="font-size:12px;fill:#000000">Endosome</text>
    <text x="179.87762" y="316.44296" id="text22" style="font-size:12px;fill:#000000" transform="matrix(0.70710678,-0.70710678,0.70710678,0.70710678,0,0)">Vacoule</text>
    <text x="196.9816" y="333.92383" id="text24" style="font-size:12px;fill:#000000" transform="matrix(0.70710678,-0.70710678,0.70710678,0.70710678,0,0)">Extracellular</text>
    <text x="214.54395" y="351.48618" id="text26" transform="matrix(0.70710678,-0.70710678,0.70710678,0.70710678,0,0)" style="font-size:12px;fill:#000000">Mitochondrion</text>
    <text x="233.45476" y="367.37454" id="text28" transform="matrix(0.70710678,-0.70710678,0.70710678,0.70710678,0,0)" style="font-size:12px;fill:#000000">Chloroplast</text>
    <text x="10" y="115" fill="black" id="text30">UniprotKB</text>
    <rect title="uniprotkb-subcell_nu" x="120" y="100" width="20" height="20" fill="#cccccc" style="stroke:black;stroke-width:2" id="rect32" />
    <rect title="uniprotkb-subcell_cy" x="145" y="100" width="20" height="20" fill="#cccccc" style="stroke:black;stroke-width:2" id="rect34" />
    <rect title="uniprotkb-subcell_cs" x="170" y="100" width="20" height="20" fill="#cccccc" style="stroke:black;stroke-width:2" id="rect36" />
    <rect title="uniprotkb-subcell_pe" x="195" y="100" width="20" height="20" fill="#cccccc" style="stroke:black;stroke-width:2" id="rect38" />
    <rect title="uniprotkb-subcell_ly" x="220" y="100" width="20" height="20" fill="#cccccc" style="stroke:black;stroke-width:2" id="rect40" />
    <rect title="uniprotkb-subcell_er" x="245" y="100" width="20" height="20" fill="#cccccc" style="stroke:black;stroke-width:2" id="rect42" />
    <rect title="uniprotkb-subcell_go" x="270" y="100" width="20" height="20" fill="#cccccc" style="stroke:black;stroke-width:2" id="rect44" />
    <rect title="uniprotkb-subcell_pm" x="295" y="100" width="20" height="20" fill="#cccccc" style="stroke:black;stroke-width:2" id="rect46" />
    <rect title="uniprotkb-subcell_en" x="320" y="100" width="20" height="20" fill="#cccccc" style="stroke:black;stroke-width:2" id="rect48" />
    <rect title="uniprotkb-subcell_va" x="345" y="100" width="20" height="20" fill="#cccccc" style="stroke:black;stroke-width:2" id="rect50" />
    <rect title="uniprotkb-subcell_ex" x="370" y="100" width="20" height="20" fill="#cccccc" style="stroke:black;stroke-width:2" id="rect52" />
    <rect title="uniprotkb-subcell_mi" x="395" y="100" width="20" height="20" fill="#cccccc" style="stroke:black;stroke-width:2" id="rect54" />
    <rect title="uniprotkb-subcell_ch" x="420" y="100" width="20" height="20" fill="#cccccc" style="stroke:black;stroke-width:2" id="rect56" />
    <text x="10" y="140" fill="black" id="text58">Gene Ontology</text>
    <rect title="goa_nu" x="120" y="125" width="20" height="20" fill="#cccccc" style="stroke:black;stroke-width:2" id="rect60" />
    <rect title="goa_cy" x="145" y="125" width="20" height="20" fill="#cccccc" style="stroke:black;stroke-width:2" id="rect62" />
    <rect title="goa_cs" x="170" y="125" width="20" height="20" fill="#cccccc" style="stroke:black;stroke-width:2" id="rect64" />
    <rect title="goa_pe" x="195" y="125" width="20" height="20" fill="#cccccc" style="stroke:black;stroke-width:2" id="rect66" />
    <rect title="goa_ly" x="220" y="125" width="20" height="20" fill="#cccccc" style="stroke:black;stroke-width:2" id="rect68" />
    <rect title="goa_er" x="245" y="125" width="20" height="20" fill="#cccccc" style="stroke:black;stroke-width:2" id="rect70" />
    <rect title="goa_go" x="270" y="125" width="20" height="20" fill="#cccccc" style="stroke:black;stroke-width:2" id="rect72" />
    <rect title="goa_pm" x="295" y="125" width="20" height="20" fill="#cccccc" style="stroke:black;stroke-width:2" id="rect74" />
    <rect title="goa_en" x="320" y="125" width="20" height="20" fill="#cccccc" style="stroke:black;stroke-width:2" id="rect76" />
    <rect title="goa_va" x="345" y="125" width="20" height="20" fill="#cccccc" style="stroke:black;stroke-width:2" id="rect78" />
    <rect title="goa_ex" x="370" y="125" width="20" height="20" fill="#cccccc" style="stroke:black;stroke-width:2" id="rect80" />
    <rect title="goa_mi" x="395" y="125" width="20" height="20" fill="#cccccc" style="stroke:black;stroke-width:2" id="rect82" />
    <rect title="goa_ch" x="420" y="125" width="20" height="20" fill="#cccccc" style="stroke:black;stroke-width:2" id="rect84" />
    <text x="10" y="165" fill="black" id="text86">Text Mining</text>
    <rect title="text_mining_nu" x="120" y="150" width="20" height="20" fill="#cccccc" style="stroke:black;stroke-width:2" id="rect88" />
    <rect title="text_mining_cy" x="145" y="150" width="20" height="20" fill="#cccccc" style="stroke:black;stroke-width:2" id="rect90" />
    <rect title="text_mining_cs" x="170" y="150" width="20" height="20" fill="#cccccc" style="stroke:black;stroke-width:2" id="rect92" />
    <rect title="text_mining_pe" x="195" y="150" width="20" height="20" fill="#cccccc" style="stroke:black;stroke-width:2" id="rect94" />
    <rect title="text_mining_ly" x="220" y="150" width="20" height="20" fill="#cccccc" style="stroke:black;stroke-width:2" id="rect96" />
    <rect title="text_mining_er" x="245" y="150" width="20" height="20" fill="#cccccc" style="stroke:black;stroke-width:2" id="rect98" />
    <rect title="text_mining_go" x="270" y="150" width="20" height="20" fill="#cccccc" style="stroke:black;stroke-width:2" id="rect100" />
    <rect title="text_mining_pm" x="295" y="150" width="20" height="20" fill="#cccccc" style="stroke:black;stroke-width:2" id="rect102" />
    <rect title="text_mining_en" x="320" y="150" width="20" height="20" fill="#cccccc" style="stroke:black;stroke-width:2" id="rect104" />
    <rect title="text_mining_va" x="345" y="150" width="20" height="20" fill="#cccccc" style="stroke:black;stroke-width:2" id="rect106" />
    <rect title="text_mining_ex" x="370" y="150" width="20" height="20" fill="#cccccc" style="stroke:black;stroke-width:2" id="rect108" />
    <rect title="text_mining_mi" x="395" y="150" width="20" height="20" fill="#cccccc" style="stroke:black;stroke-width:2" id="rect110" />
    <rect title="text_mining_ch" x="420" y="150" width="20" height="20" fill="#cccccc" style="stroke:black;stroke-width:2" id="rect112" />
    <text x="10" y="190" fill="black" id="text114">PSORT</text>
    <rect title="psort_nu" x="120" y="175" width="20" height="20" fill="#cccccc" style="stroke:black;stroke-width:2" id="rect116" />
    <rect title="psort_cy" x="145" y="175" width="20" height="20" fill="#cccccc" style="stroke:black;stroke-width:2" id="rect118" />
    <rect title="psort_cs" x="170" y="175" width="20" height="20" fill="#cccccc" style="stroke:black;stroke-width:2" id="rect120" />
    <rect title="psort_pe" x="195" y="175" width="20" height="20" fill="#cccccc" style="stroke:black;stroke-width:2" id="rect122" />
    <rect title="psort_ly" x="220" y="175" width="20" height="20" fill="#cccccc" style="stroke:black;stroke-width:2" id="rect124" />
    <rect title="psort_er" x="245" y="175" width="20" height="20" fill="#cccccc" style="stroke:black;stroke-width:2" id="rect126" />
    <rect title="psort_go" x="270" y="175" width="20" height="20" fill="#cccccc" style="stroke:black;stroke-width:2" id="rect128" />
    <rect title="psort_pm" x="295" y="175" width="45" height="20" fill="#cccccc" style="stroke:black;stroke-width:2" id="rect130" />
    <rect title="psort_va" x="345" y="175" width="20" height="20" fill="#cccccc" style="stroke:black;stroke-width:2" id="rect132" />
    <rect title="psort_ex" x="370" y="175" width="20" height="20" fill="#cccccc" style="stroke:black;stroke-width:2" id="rect134" />
    <rect title="psort_mi" x="395" y="175" width="20" height="20" fill="#cccccc" style="stroke:black;stroke-width:2" id="rect136" />
    <rect title="psort_ch" x="420" y="175" width="20" height="20" fill="#cccccc" style="stroke:black;stroke-width:2" id="rect138" />
    <text x="10" y="215" fill="black" id="text140">YLoc</text>
    <rect title="yloc_nu" x="120" y="200" width="20" height="20" fill="#cccccc" style="stroke:black;stroke-width:2" id="rect142" />
    <rect title="yloc_cy" x="145" y="200" width="20" height="20" fill="#cccccc" style="stroke:black;stroke-width:2" id="rect144" />
    <rect title="yloc_pe" x="195" y="200" width="20" height="20" fill="#cccccc" style="stroke:black;stroke-width:2" id="rect146" />
    <rect title="yloc_ly" x="220" y="200" width="20" height="20" fill="#cccccc" style="stroke:black;stroke-width:2" id="rect148" />
    <rect title="yloc_er" x="245" y="200" width="20" height="20" fill="#cccccc" style="stroke:black;stroke-width:2" id="rect150" />
    <rect title="yloc_go" x="270" y="200" width="20" height="20" fill="#cccccc" style="stroke:black;stroke-width:2" id="rect152" />
    <rect title="yloc_pm" x="295" y="200" width="45" height="20" fill="#cccccc" style="stroke:black;stroke-width:2" id="rect154" />
    <rect title="yloc_va" x="345" y="200" width="20" height="20" fill="#cccccc" style="stroke:black;stroke-width:2" id="rect156" />
    <rect title="yloc_ex" x="370" y="200" width="20" height="20" fill="#cccccc" style="stroke:black;stroke-width:2" id="rect158" />
    <rect title="yloc_mi" x="395" y="200" width="20" height="20" fill="#cccccc" style="stroke:black;stroke-width:2" id="rect160" />
    <rect title="yloc_ch" x="420" y="200" width="20" height="20" fill="#cccccc" style="stroke:black;stroke-width:2" id="rect162" />
</svg>
