<?xml version="1.0" standalone="no"?>
<!DOCTYPE svg PUBLIC "-//W3C//DTD SVG 1.1//EN" "http://www.w3.org/Graphics/SVG/1.1/DTD/svg11.dtd">
<svg xmlns="http://www.w3.org/2000/svg" version="1.1" height="600" width="800">

<text x="92" y="15" fill="black" >nu</text>
<text x="117" y="15" fill="black" >cy</text>
<text x="142" y="15" fill="black" >cs</text>
<text x="167" y="15" fill="black" >pe</text>
<text x="192" y="15" fill="black" >ly</text>
<text x="217" y="15" fill="black" >er</text>
<text x="242" y="15" fill="black" >go</text>
<text x="267" y="15" fill="black" >pm</text>
<text x="292" y="15" fill="black" >en</text>
<text x="317" y="15" fill="black" >va</text>
<text x="342" y="15" fill="black" >ex</text>
<text x="367" y="15" fill="black" >mi</text>
<text x="10" y="40" fill="black">YLocH</text><rect title="YLocH-nu" x="90" y="25" width="20" height="20" fill="#cccccc" style="stroke:black;stroke-width:2" />
<rect title="YLocH-cy" x="115" y="25" width="20" height="20" fill="#cccccc" style="stroke:black;stroke-width:2" />
<rect title="YLocH-pe" x="165" y="25" width="20" height="20" fill="#cccccc" style="stroke:black;stroke-width:2" />
<rect title="YLocH-ly" x="190" y="25" width="20" height="20" fill="#cccccc" style="stroke:black;stroke-width:2" />
<rect title="YLocH-er" x="215" y="25" width="20" height="20" fill="#cccccc" style="stroke:black;stroke-width:2" />
<rect title="YLocH-go" x="240" y="25" width="20" height="20" fill="#cccccc" style="stroke:black;stroke-width:2" />
<rect title="YLocH-pm" x="265" y="25" width="45" height="20" fill="#cccccc" style="stroke:black;stroke-width:2" />
<rect title="YLocH-va" x="315" y="25" width="20" height="20" fill="#cccccc" style="stroke:black;stroke-width:2" />
<rect title="YLocH-ex" x="340" y="25" width="20" height="20" fill="#cccccc" style="stroke:black;stroke-width:2" />
<rect title="YLocH-mi" x="365" y="25" width="20" height="20" fill="#cccccc" style="stroke:black;stroke-width:2" />
<text x="10" y="65" fill="black">YLocL</text><rect title="YLocL-nu" x="90" y="50" width="20" height="20" fill="#cccccc" style="stroke:black;stroke-width:2" />
<rect title="YLocL-cy" x="115" y="50" width="70" height="20" fill="#cccccc" style="stroke:black;stroke-width:2" />
<rect title="YLocL-ly" x="190" y="50" width="170" height="20" fill="#cccccc" style="stroke:black;stroke-width:2" />
<rect title="YLocL-mi" x="365" y="50" width="20" height="20" fill="#cccccc" style="stroke:black;stroke-width:2" />
<text x="10" y="90" fill="black">TargetP</text><rect title="TargetP-nu" x="90" y="75" width="95" height="20" fill="#cccccc" style="stroke:black;stroke-width:2" />
<rect title="TargetP-ly" x="190" y="75" width="170" height="20" fill="#cccccc" style="stroke:black;stroke-width:2" />
<rect title="TargetP-mi" x="365" y="75" width="20" height="20" fill="#cccccc" style="stroke:black;stroke-width:2" />
<text x="10" y="115" fill="black">PSORT</text><rect title="PSORT-nu" x="90" y="100" width="20" height="20" fill="#cccccc" style="stroke:black;stroke-width:2" />
<rect title="PSORT-cy" x="115" y="100" width="20" height="20" fill="#cccccc" style="stroke:black;stroke-width:2" />
<rect title="PSORT-cs" x="140" y="100" width="20" height="20" fill="#cccccc" style="stroke:black;stroke-width:2" />
<rect title="PSORT-pe" x="165" y="100" width="20" height="20" fill="#cccccc" style="stroke:black;stroke-width:2" />
<rect title="PSORT-ly" x="190" y="100" width="20" height="20" fill="#cccccc" style="stroke:black;stroke-width:2" />
<rect title="PSORT-er" x="215" y="100" width="20" height="20" fill="#cccccc" style="stroke:black;stroke-width:2" />
<rect title="PSORT-go" x="240" y="100" width="20" height="20" fill="#cccccc" style="stroke:black;stroke-width:2" />
<rect title="PSORT-pm" x="265" y="100" width="45" height="20" fill="#cccccc" style="stroke:black;stroke-width:2" />
<rect title="PSORT-va" x="315" y="100" width="20" height="20" fill="#cccccc" style="stroke:black;stroke-width:2" />
<rect title="PSORT-ex" x="340" y="100" width="20" height="20" fill="#cccccc" style="stroke:black;stroke-width:2" />
<rect title="PSORT-mi" x="365" y="100" width="20" height="20" fill="#cccccc" style="stroke:black;stroke-width:2" />
<text x="10" y="140" fill="black">LocTree</text><rect title="LocTree-nu" x="90" y="125" width="20" height="20" fill="#cccccc" style="stroke:black;stroke-width:2" />
<rect title="LocTree-cy" x="115" y="125" width="70" height="20" fill="#cccccc" style="stroke:black;stroke-width:2" />
<rect title="LocTree-ly" x="190" y="125" width="145" height="20" fill="#cccccc" style="stroke:black;stroke-width:2" />
<rect title="LocTree-ex" x="340" y="125" width="20" height="20" fill="#cccccc" style="stroke:black;stroke-width:2" />
<rect title="LocTree-mi" x="365" y="125" width="20" height="20" fill="#cccccc" style="stroke:black;stroke-width:2" />
<text x="10" y="165" fill="black">KnowPred</text><rect title="KnowPred-nu" x="90" y="150" width="20" height="20" fill="#cccccc" style="stroke:black;stroke-width:2" />
<rect title="KnowPred-cy" x="115" y="150" width="20" height="20" fill="#cccccc" style="stroke:black;stroke-width:2" />
<rect title="KnowPred-cs" x="140" y="150" width="20" height="20" fill="#cccccc" style="stroke:black;stroke-width:2" />
<rect title="KnowPred-pe" x="165" y="150" width="20" height="20" fill="#cccccc" style="stroke:black;stroke-width:2" />
<rect title="KnowPred-ly" x="190" y="150" width="20" height="20" fill="#cccccc" style="stroke:black;stroke-width:2" />
<rect title="KnowPred-er" x="215" y="150" width="20" height="20" fill="#cccccc" style="stroke:black;stroke-width:2" />
<rect title="KnowPred-go" x="240" y="150" width="20" height="20" fill="#cccccc" style="stroke:black;stroke-width:2" />
<rect title="KnowPred-pm" x="265" y="150" width="45" height="20" fill="#cccccc" style="stroke:black;stroke-width:2" />
<rect title="KnowPred-ex" x="340" y="150" width="20" height="20" fill="#cccccc" style="stroke:black;stroke-width:2" />
<rect title="KnowPred-mi" x="365" y="150" width="20" height="20" fill="#cccccc" style="stroke:black;stroke-width:2" />
<text x="10" y="190" fill="black">BaCellLo</text><rect title="BaCellLo-nu" x="90" y="175" width="20" height="20" fill="#cccccc" style="stroke:black;stroke-width:2" />
<rect title="BaCellLo-cy" x="115" y="175" width="70" height="20" fill="#cccccc" style="stroke:black;stroke-width:2" />
<rect title="BaCellLo-ly" x="190" y="175" width="170" height="20" fill="#cccccc" style="stroke:black;stroke-width:2" />
<rect title="BaCellLo-mi" x="365" y="175" width="20" height="20" fill="#cccccc" style="stroke:black;stroke-width:2" />
</svg>
