<?xml version="1.0" encoding="UTF-8" standalone="no"?>
<svg xmlns:dc="http://purl.org/dc/elements/1.1/" xmlns:cc="http://creativecommons.org/ns#" xmlns:rdf="http://www.w3.org/1999/02/22-rdf-syntax-ns#" xmlns:svg="http://www.w3.org/2000/svg" xmlns="http://www.w3.org/2000/svg" xmlns:sodipodi="http://sodipodi.sourceforge.net/DTD/sodipodi-0.dtd" xmlns:inkscape="http://www.inkscape.org/namespaces/inkscape" version="1.1" width="525" height="225" id="svg2" inkscape:version="0.48.2 r9819" sodipodi:docname="subcell_overview_animals.svg">
    <metadata id="metadata156">
        <rdf:RDF>
            <cc:Work rdf:about="">
                <dc:format>image/svg+xml</dc:format>
                <dc:type rdf:resource="http://purl.org/dc/dcmitype/StillImage" />
            </cc:Work>
        </rdf:RDF>
    </metadata>
    <defs id="defs154" />
    <sodipodi:namedview pagecolor="#ffffff" bordercolor="#666666" borderopacity="1" objecttolerance="10" gridtolerance="10" guidetolerance="10" inkscape:pageopacity="0" inkscape:pageshadow="2" inkscape:window-width="1346" inkscape:window-height="778" id="namedview152" showgrid="false" inkscape:zoom="2" inkscape:cx="313.4026" inkscape:cy="92.5" inkscape:window-x="1730" inkscape:window-y="194" inkscape:window-maximized="0" inkscape:current-layer="svg2"></sodipodi:namedview>
    <text x="7.0108995" y="169.50948" id="text4" transform="matrix(0.70710678,-0.70710678,0.70710678,0.70710678,0,0)" style="font-size:14px;fill:#000000;font-family:sans-serif">Nucleus</text>
    <text x="23.638958" y="186.87793" id="text6" transform="matrix(0.70710678,-0.70710678,0.70710678,0.70710678,0,0)" style="font-size:14px;fill:#000000;font-family:sans-serif">Cytosol</text>
    <text x="42.170887" y="204.70274" id="text8" transform="matrix(0.70710678,-0.70710678,0.70710678,0.70710678,0,0)" style="font-size:14px;fill:#000000;font-family:sans-serif">Cytoskeleton</text>
    <text x="61.523556" y="222.60793" id="text10" transform="matrix(0.70710678,-0.70710678,0.70710678,0.70710678,0,0)" style="font-size:14px;fill:#000000;font-family:sans-serif">Peroxisomes</text>
    <text x="78.905266" y="239.98962" id="text12" transform="matrix(0.70710678,-0.70710678,0.70710678,0.70710678,0,0)" style="font-size:14px;fill:#000000;font-family:sans-serif">Lysosomes</text>
    <text x="97.37928" y="257.75656" id="text14" transform="matrix(0.70710678,-0.70710678,0.70710678,0.70710678,0,0)" style="font-size:14px;fill:#000000;font-family:sans-serif">Endoplasmic Reticulum</text>
    <text x="113.09936" y="275.63123" id="text16" transform="matrix(0.70710678,-0.70710678,0.70710678,0.70710678,0,0)" style="font-size:14px;fill:#000000;font-family:sans-serif">Golgi apparatus</text>
    <text x="132.52773" y="293.61209" id="text18" transform="matrix(0.70710678,-0.70710678,0.70710678,0.70710678,0,0)" style="font-size:14px;fill:#000000;font-family:sans-serif">Plasma membrane</text>
    <text x="149.98555" y="310.36282" id="text20" transform="matrix(0.70710678,-0.70710678,0.70710678,0.70710678,0,0)" style="font-size:14px;fill:#000000;font-family:sans-serif">Endosomes</text>
    <text x="166.79614" y="329.62497" id="text22" transform="matrix(0.70710678,-0.70710678,0.70710678,0.70710678,0,0)" style="font-size:14px;fill:#000000;font-family:sans-serif">Vacuoles</text>
    <text x="184.60724" y="346.39871" id="text24" transform="matrix(0.70710678,-0.70710678,0.70710678,0.70710678,0,0)" style="font-size:14px;fill:#000000;font-family:sans-serif">Extracellular space</text>
    <text x="203.23021" y="363.60751" id="text26" transform="matrix(0.70710678,-0.70710678,0.70710678,0.70710678,0,0)" style="font-size:14px;fill:#000000;font-family:sans-serif">Mitochondria</text>
    <text x="35" y="135" id="text28" style="font-size:14px;fill:#000000;font-family:sans-serif">Knowledge</text>
    <rect title="knowledge_nu" x="120" y="120" width="20" height="20" fill="#cccccc" style="stroke:black;stroke-width:2" id="rect30" />
    <rect title="knowledge_cy" x="145" y="120" width="20" height="20" fill="#cccccc" style="stroke:black;stroke-width:2" id="rect32" />
    <rect title="knowledge_cs" x="170" y="120" width="20" height="20" fill="#cccccc" style="stroke:black;stroke-width:2" id="rect34" />
    <rect title="knowledge_pe" x="195" y="120" width="20" height="20" fill="#cccccc" style="stroke:black;stroke-width:2" id="rect36" />
    <rect title="knowledge_ly" x="220" y="120" width="20" height="20" fill="#cccccc" style="stroke:black;stroke-width:2" id="rect38" />
    <rect title="knowledge_er" x="245" y="120" width="20" height="20" fill="#cccccc" style="stroke:black;stroke-width:2" id="rect40" />
    <rect title="knowledge_go" x="270" y="120" width="20" height="20" fill="#cccccc" style="stroke:black;stroke-width:2" id="rect42" />
    <rect title="knowledge_pm" x="295" y="120" width="20" height="20" fill="#cccccc" style="stroke:black;stroke-width:2" id="rect44" />
    <rect title="knowledge_en" x="320" y="120" width="20" height="20" fill="#cccccc" style="stroke:black;stroke-width:2" id="rect46" />
    <rect title="knowledge_va" x="345" y="120" width="20" height="20" fill="#cccccc" style="stroke:black;stroke-width:2" id="rect48" />
    <rect title="knowledge_ex" x="370" y="120" width="20" height="20" fill="#cccccc" style="stroke:black;stroke-width:2" id="rect50" />
    <rect title="knowledge_mi" x="395" y="120" width="20" height="20" fill="#cccccc" style="stroke:black;stroke-width:2" id="rect52" />
    <text x="35" y="159.5" id="text80" style="font-size:14px;fill:#000000;font-family:sans-serif">Text Mining</text>
    <rect title="text_mining_nu" x="120" y="145" width="20" height="20" fill="#cccccc" style="stroke:black;stroke-width:2" id="rect82" />
    <rect title="text_mining_cy" x="145" y="145" width="20" height="20" fill="#cccccc" style="stroke:black;stroke-width:2" id="rect84" />
    <rect title="text_mining_cs" x="170" y="145" width="20" height="20" fill="#cccccc" style="stroke:black;stroke-width:2" id="rect86" />
    <rect title="text_mining_pe" x="195" y="145" width="20" height="20" fill="#cccccc" style="stroke:black;stroke-width:2" id="rect88" />
    <rect title="text_mining_ly" x="220" y="145" width="20" height="20" fill="#cccccc" style="stroke:black;stroke-width:2" id="rect90" />
    <rect title="text_mining_er" x="245" y="145" width="20" height="20" fill="#cccccc" style="stroke:black;stroke-width:2" id="rect92" />
    <rect title="text_mining_go" x="270" y="145" width="20" height="20" fill="#cccccc" style="stroke:black;stroke-width:2" id="rect94" />
    <rect title="text_mining_pm" x="295" y="145" width="20" height="20" fill="#cccccc" style="stroke:black;stroke-width:2" id="rect96" />
    <rect title="text_mining_en" x="320" y="145" width="20" height="20" fill="#cccccc" style="stroke:black;stroke-width:2" id="rect98" />
    <rect title="text_mining_va" x="345" y="145" width="20" height="20" fill="#cccccc" style="stroke:black;stroke-width:2" id="rect100" />
    <rect title="text_mining_ex" x="370" y="145" width="20" height="20" fill="#cccccc" style="stroke:black;stroke-width:2" id="rect102" />
    <rect title="text_mining_mi" x="395" y="145" width="20" height="20" fill="#cccccc" style="stroke:black;stroke-width:2" id="rect104" />
    <text x="35" y="184.5" id="text106" style="font-size:14px;fill:#000000;font-family:sans-serif">PSORT</text>
    <rect title="psort_nu" x="120" y="170" width="20" height="20" fill="#cccccc" style="stroke:black;stroke-width:2" id="rect108" />
    <rect title="psort_cy" x="145" y="170" width="20" height="20" fill="#cccccc" style="stroke:black;stroke-width:2" id="rect110" />
    <rect title="psort_cs" x="170" y="170" width="20" height="20" fill="#cccccc" style="stroke:black;stroke-width:2" id="rect112" />
    <rect title="psort_pe" x="195" y="170" width="20" height="20" fill="#cccccc" style="stroke:black;stroke-width:2" id="rect114" />
    <rect title="psort_ly" x="220" y="170" width="20" height="20" fill="#cccccc" style="stroke:black;stroke-width:2" id="rect116" />
    <rect title="psort_er" x="245" y="170" width="20" height="20" fill="#cccccc" style="stroke:black;stroke-width:2" id="rect118" />
    <rect title="psort_go" x="270" y="170" width="20" height="20" fill="#cccccc" style="stroke:black;stroke-width:2" id="rect120" />
    <rect title="psort_pm" x="295" y="170" width="45" height="20" fill="#cccccc" style="stroke:black;stroke-width:2" id="rect122" />
    <rect title="psort_va" x="345" y="170" width="20" height="20" fill="#cccccc" style="stroke:black;stroke-width:2" id="rect124" />
    <rect title="psort_ex" x="370" y="170" width="20" height="20" fill="#cccccc" style="stroke:black;stroke-width:2" id="rect126" />
    <rect title="psort_mi" x="395" y="170" width="20" height="20" fill="#cccccc" style="stroke:black;stroke-width:2" id="rect128" />
    <text x="35" y="209.5" id="text130" style="font-size:14px;fill:#000000;font-family:sans-serif">YLoc</text>
    <rect title="yloc_nu" x="120" y="195" width="20" height="20" fill="#cccccc" style="stroke:black;stroke-width:2" id="rect132" />
    <rect title="yloc_cy" x="145" y="195" width="20" height="20" fill="#cccccc" style="stroke:black;stroke-width:2" id="rect134" />
    <rect title="yloc_pe" x="195" y="195" width="20" height="20" fill="#cccccc" style="stroke:black;stroke-width:2" id="rect136" />
    <rect title="yloc_ly" x="220" y="195" width="20" height="20" fill="#cccccc" style="stroke:black;stroke-width:2" id="rect138" />
    <rect title="yloc_er" x="245" y="195" width="20" height="20" fill="#cccccc" style="stroke:black;stroke-width:2" id="rect140" />
    <rect title="yloc_go" x="270" y="195" width="20" height="20" fill="#cccccc" style="stroke:black;stroke-width:2" id="rect142" />
    <rect title="yloc_pm" x="295" y="195" width="45" height="20" fill="#cccccc" style="stroke:black;stroke-width:2" id="rect144" />
    <rect title="yloc_va" x="345" y="195" width="20" height="20" fill="#cccccc" style="stroke:black;stroke-width:2" id="rect146" />
    <rect title="yloc_ex" x="370" y="195" width="20" height="20" fill="#cccccc" style="stroke:black;stroke-width:2" id="rect148" />
    <rect title="yloc_mi" x="395" y="195" width="20" height="20" fill="#cccccc" style="stroke:black;stroke-width:2" id="rect150" />
</svg>
